<svg width="36" height="36" viewBox="0 0 36 36" fill="none" xmlns="http://www.w3.org/2000/svg">
<path d="M36 18C36 27.9411 27.9411 36 18 36C8.05887 36 0 27.9411 0 18C0 8.05887 8.05887 0 18 0C27.9411 0 36 8.05887 36 18Z" fill="#F7931A"/>
<path fill-rule="evenodd" clip-rule="evenodd" d="M19.7201 10.1429C22.1941 10.3707 24.1519 11.1692 24.3701 13.5518C24.5327 15.2954 23.8376 16.3415 22.7252 16.9336C24.553 17.3948 25.6979 18.5377 25.4716 21.0955C25.1925 24.2723 22.9366 25.1249 19.7174 25.3185V27.4116H17.3104L17.3118 25.3626C17.0587 25.3626 16.0651 25.3464 15.0889 25.3305C14.1466 25.3151 13.2206 25.3 12.993 25.3H10.5L10.8807 22.8974C10.8807 22.8974 12.2966 22.9202 12.2722 22.8974C12.8142 22.896 12.9578 22.4875 12.9917 22.2313L12.993 16.955H13.1949C13.1163 16.9436 13.0472 16.9408 12.993 16.9408V13.1746C12.9198 12.7661 12.6678 12.2936 11.8915 12.2936C11.9159 12.2666 10.5014 12.295 10.5014 12.295V10.1458L13.142 10.1472V10.1572C13.5325 10.1572 13.9334 10.1489 14.3409 10.1405L14.3615 10.1401C15.9923 10.0832 16.9753 10.0547 17.3104 10.0547V8.2002H19.7201V10.1429ZM16.3192 12.278C16.4288 12.278 16.5622 12.2743 16.7134 12.2701C18.0552 12.2328 20.7997 12.1565 20.7985 14.2863C20.7985 16.3673 17.9504 16.32 16.6394 16.2983C16.5185 16.2963 16.4106 16.2945 16.3192 16.2946V12.278ZM16.3192 22.7508V18.32C16.4515 18.3203 16.6126 18.3165 16.7952 18.3122L16.7953 18.3122C18.4057 18.2742 21.69 18.1967 21.69 20.5361C21.69 22.8305 18.2551 22.7785 16.6884 22.7548C16.5494 22.7527 16.4251 22.7508 16.3192 22.7508Z" fill="white"/>
</svg>
