<svg width="36" height="36" viewBox="0 0 36 36" fill="none" xmlns="http://www.w3.org/2000/svg">
<path fill-rule="evenodd" clip-rule="evenodd" d="M11.4688 9.96833C6.26641 15.0935 3 18.7002 3 23.7514C3 29.8005 8.61221 33.4988 18 33.4988C27.3878 33.4988 33 29.8005 33 23.7514C33 18.7133 29.7505 15.1122 24.5717 10.0082L27.1391 7.03596C27.6746 6.49812 27.8366 5.69356 27.5508 4.9913C27.265 4.28904 26.5865 3.82459 25.8265 3.81097H25.7389C24.9224 3.81097 24.5015 4.009 24.1044 4.19581C23.6894 4.39105 23.3005 4.57404 22.5133 4.50593C21.3762 4.37972 20.9806 3.98957 20.6273 3.64109C20.6197 3.63364 20.6122 3.62621 20.6047 3.61879C20.5715 3.58613 20.5365 3.54997 20.499 3.51124C20.1303 3.13019 19.5205 2.5 18.0386 2.5C16.4942 2.5 15.9232 3.12478 15.5671 3.51451C15.5331 3.55166 15.5011 3.58666 15.4704 3.61879C15.1176 3.98805 14.7254 4.3792 13.564 4.50593C12.7797 4.57743 12.3907 4.39411 11.9742 4.19786C11.5763 4.01032 11.1533 3.81097 10.3362 3.81097H10.2486C9.48822 3.82374 8.80894 4.28787 8.52256 4.99032C8.23619 5.69277 8.39803 6.49784 8.93381 7.03596L11.4688 9.96833Z" fill="#4FB8A9"/>
<path d="M18.2109 24.6641V16.501" stroke="white" stroke-width="1.5" stroke-linecap="round" stroke-linejoin="round"/>
<path d="M21.8038 22.1748L18.2027 25.5L14.6016 22.1748" stroke="white" stroke-width="1.5" stroke-linecap="round" stroke-linejoin="round"/>
</svg>
