<svg width="36" height="36" viewBox="0 0 36 36" fill="none" xmlns="http://www.w3.org/2000/svg">
<mask id="mask0_1311_16375" style="mask-type:alpha" maskUnits="userSpaceOnUse" x="0" y="0" width="36" height="36">
<rect width="36" height="36" fill="white"/>
</mask>
<g mask="url(#mask0_1311_16375)">
<path d="M21.1152 33.6754C20.846 33.9222 20.4834 34.037 20.1234 33.9895C17.6437 33.7036 15.3593 32.8399 13.9676 31.3102C10.8526 27.9053 10.0343 22.2672 6.9192 18.8529C5.67938 17.5054 3.50967 16.5757 1.50425 16.2459C1.27774 16.2023 1.09382 16.0349 1.02679 15.8113C0.959763 15.5878 1.0207 15.345 1.185 15.1811L14.9068 2.32176C15.1728 2.08234 15.5264 1.96823 15.8801 2.00765C18.8092 2.30291 20.6379 3.13214 22.0637 4.68066C25.1633 8.09808 25.9878 13.7393 29.1028 17.1568C30.3427 18.5263 32.2923 19.4591 34.4899 19.7732C34.7216 19.8155 34.9096 19.9871 34.9753 20.2161C35.041 20.4452 34.9731 20.6922 34.7999 20.8537L21.1152 33.6754Z" fill="#50C3B0"/>
</g>
<circle cx="18.5" cy="17.5" r="3.5" fill="white"/>
</svg>
