<svg width="500" height="410" viewBox="0 0 500 410" fill="none" xmlns="http://www.w3.org/2000/svg">
<path d="M0 0H500V410H0V0Z" fill="#111111"/>
<mask id="mask0_1096_6700" style="mask-type:alpha" maskUnits="userSpaceOnUse" x="0" y="0" width="500" height="410">
<path d="M0 0H500V410H0V0Z" fill="#111111"/>
</mask>
<g mask="url(#mask0_1096_6700)">
<circle opacity="0.5" cx="90.5" cy="324.5" r="2.5" fill="white"/>
<path d="M386.5 37L388.091 42.909L394 44.5L388.091 46.091L386.5 52L384.909 46.091L379 44.5L384.909 42.909L386.5 37Z" fill="white"/>
<path d="M110.5 361L112.375 365.252L116.995 364.75L114.25 368.5L116.995 372.25L112.375 371.748L110.5 376L108.625 371.748L104.005 372.25L106.75 368.5L104.005 364.75L108.625 365.252L110.5 361Z" fill="#948CF1"/>
<circle cx="429.343" cy="300.383" r="23.5" transform="rotate(25.0056 429.343 300.383)" fill="#2845EB"/>
<path fill-rule="evenodd" clip-rule="evenodd" d="M418.873 312.022C418.655 312.488 418.183 312.59 417.818 312.249C412.988 307.668 411.461 300.115 414.553 293.485C417.646 286.855 424.415 283.171 431.028 283.928C431.524 283.988 431.749 284.415 431.532 284.881L430.995 286.032C430.85 286.342 430.45 286.601 430.121 286.57C424.782 286.2 419.415 289.242 416.924 294.581C414.434 299.92 415.552 305.988 419.267 309.839C419.499 310.08 419.562 310.544 419.416 310.856L418.873 312.022Z" fill="#0B0624"/>
<path fill-rule="evenodd" clip-rule="evenodd" d="M426.82 310.008C426.667 310.335 426.274 310.476 425.945 310.323L424.756 309.768C424.427 309.615 424.282 309.222 424.434 308.895L425.306 307.026C422.867 305.464 422.271 303.425 422.843 301.299C422.939 300.937 423.35 300.758 423.694 300.919L425.055 301.553C425.339 301.686 425.485 301.998 425.414 302.307C425.121 303.598 425.383 304.813 427.469 305.786C429.009 306.504 430.499 306.161 431.094 304.885C431.689 303.609 431.271 302.827 429.186 301.402C426.058 299.402 424.948 297.665 426.159 295.068C427.093 293.066 429.345 292.22 431.863 292.988L432.718 291.155C432.87 290.829 433.264 290.687 433.593 290.841L434.782 291.395C435.111 291.549 435.255 291.941 435.103 292.268L434.224 294.152C435.987 295.39 436.701 297.041 436.26 299.021C436.175 299.398 435.757 299.59 435.406 299.427L434.15 298.841C433.881 298.715 433.739 298.432 433.778 298.134C433.974 296.836 433.38 295.963 431.952 295.296C430.374 294.561 429.206 294.937 428.711 295.997C428.189 297.117 428.39 297.897 430.65 299.377C433.717 301.349 434.975 303.064 433.684 305.832C432.705 307.931 430.342 308.897 427.699 308.142L426.827 310.011L426.82 310.008Z" fill="#0B0624"/>
<path fill-rule="evenodd" clip-rule="evenodd" d="M427.987 316.991C427.491 316.932 427.266 316.504 427.483 316.038L428.02 314.887C428.179 314.545 428.528 314.32 428.895 314.348C434.234 314.718 439.602 311.673 442.093 306.332C444.584 300.99 443.467 294.921 439.753 291.068C439.522 290.828 439.458 290.363 439.604 290.051L440.14 288.901C440.358 288.435 440.834 288.325 441.195 288.673C446.024 293.255 447.55 300.811 444.457 307.444C441.363 314.057 434.604 317.74 427.987 316.991Z" fill="#0B0624"/>
<rect x="291.641" y="382.918" width="123.61" height="43.1326" rx="21.5663" transform="rotate(-20 291.641 382.918)" fill="#111111" stroke="#71F179"/>
<path d="M330.184 388.183L329.244 388.525L329.448 397.389L323.819 390.52L323.086 390.787L323.183 399.648L317.648 392.745L316.708 393.087L323.201 401.217L324.103 400.889L323.996 392.116L329.534 398.912L330.436 398.583L330.184 388.183ZM342.292 388.713C341.743 387.381 340.895 386.455 339.76 385.91C338.625 385.365 337.416 385.316 336.156 385.774C334.86 386.246 333.915 387.101 333.304 388.345C332.692 389.589 332.647 390.926 333.166 392.354C333.686 393.782 334.561 394.783 335.816 395.306C337.058 395.854 338.306 395.889 339.546 395.438C340.598 395.055 341.43 394.475 341.997 393.694C342.565 392.913 342.843 391.982 342.844 390.875L341.968 390.981C341.903 392.792 341 393.994 339.252 394.63C338.275 394.986 337.28 394.943 336.268 394.503C335.257 394.062 334.52 393.266 334.089 392.082L342.415 389.052L342.292 388.713ZM336.457 386.601C337.397 386.259 338.315 386.266 339.191 386.628C340.049 386.997 340.738 387.661 341.234 388.673L333.867 391.354C333.61 390.298 333.748 389.333 334.274 388.439C334.807 387.564 335.518 386.943 336.457 386.601ZM347.682 392.243L342.757 378.711L341.836 379.046L346.761 392.578L347.682 392.243ZM354.914 388.887C353.824 389.283 352.792 389.255 351.792 388.788C350.781 388.348 350.075 387.519 349.637 386.317C349.22 385.17 349.235 384.1 349.713 383.075C350.198 382.069 350.963 381.364 352.034 380.974C352.824 380.687 353.594 380.641 354.384 380.822C355.154 381.009 355.773 381.423 356.259 382.055L357.021 381.458C356.424 380.696 355.638 380.174 354.657 379.935C353.676 379.696 352.697 379.754 351.72 380.11C350.404 380.589 349.459 381.443 348.867 382.681C348.256 383.925 348.229 385.254 348.735 386.645C349.255 388.073 350.13 389.074 351.372 389.622C352.621 390.189 353.906 390.211 355.222 389.732C356.218 389.37 357.031 388.797 357.636 388.002C358.241 387.208 358.502 386.346 358.431 385.393L357.497 385.456C357.524 386.234 357.309 386.929 356.826 387.531C356.33 388.158 355.704 388.599 354.914 388.887ZM362.649 376.153C361.277 376.653 360.302 377.54 359.709 378.777C359.098 380.021 359.064 381.332 359.563 382.704C360.069 384.094 360.938 385.077 362.206 385.637C363.462 386.222 364.772 386.256 366.144 385.757C367.498 385.264 368.48 384.396 369.084 383.133C369.677 381.896 369.73 380.578 369.223 379.188C368.724 377.816 367.837 376.84 366.588 376.273C365.32 375.713 364.002 375.661 362.649 376.153ZM365.843 384.93C364.735 385.334 363.658 385.3 362.633 384.822C361.607 384.343 360.883 383.522 360.465 382.375C360.048 381.229 360.075 380.134 360.553 379.108C361.031 378.083 361.816 377.372 362.943 376.961C364.052 376.558 365.128 376.592 366.154 377.07C367.179 377.548 367.904 378.37 368.321 379.516C368.738 380.662 368.693 381.765 368.215 382.79C367.736 383.815 366.934 384.533 365.843 384.93ZM381.197 369.381C380.389 369.675 379.75 370.142 379.286 370.736C378.802 371.338 378.524 372.035 378.432 372.835C377.967 372.259 377.381 371.877 376.673 371.687C375.973 371.517 375.221 371.556 374.469 371.83C372.891 372.404 372.028 373.485 371.863 375.077L371.206 373.273L370.285 373.608L373.63 382.798L374.551 382.463L372.793 377.633C372.383 376.505 372.336 375.501 372.654 374.619C372.971 373.737 373.619 373.118 374.577 372.77C375.366 372.482 376.076 372.501 376.735 372.793C377.402 373.104 377.872 373.635 378.159 374.424L380.321 380.363L381.242 380.028L379.484 375.198C379.066 374.051 379.02 373.047 379.356 372.158C379.681 371.295 380.328 370.676 381.305 370.321C382.095 370.033 382.804 370.052 383.463 370.344C384.13 370.655 384.6 371.186 384.887 371.975L387.049 377.914L387.97 377.579L385.76 371.509C385.398 370.513 384.784 369.821 383.938 369.426C383.08 369.057 382.175 369.025 381.197 369.381ZM397.976 368.446C397.427 367.113 396.579 366.187 395.444 365.643C394.31 365.098 393.1 365.049 391.841 365.507C390.544 365.979 389.599 366.834 388.988 368.078C388.376 369.322 388.331 370.658 388.851 372.087C389.37 373.515 390.246 374.516 391.5 375.038C392.742 375.587 393.99 375.622 395.23 375.171C396.283 374.788 397.115 374.208 397.682 373.427C398.249 372.646 398.527 371.715 398.528 370.607L397.652 370.714C397.587 372.525 396.684 373.726 394.936 374.362C393.959 374.718 392.964 374.676 391.953 374.235C390.941 373.795 390.204 372.999 389.773 371.815L398.099 368.784L397.976 368.446ZM392.142 366.334C393.081 365.992 393.999 365.999 394.876 366.361C395.733 366.729 396.422 367.394 396.918 368.405L389.551 371.087C389.294 370.031 389.432 369.065 389.958 368.172C390.491 367.297 391.202 366.676 392.142 366.334Z" fill="#71F179"/>
<path d="M91.4164 108.746C92.4015 109.185 93.5578 108.764 94.0299 107.794L109.454 76.0979C109.825 75.3362 109.676 74.4236 109.081 73.8198L93.0814 57.5639C92.5321 57.0058 91.7077 56.8196 90.9719 57.0875L61.1651 67.9362C60.4294 68.204 59.9175 68.8766 59.8555 69.6571L58.0479 92.3945C57.9807 93.239 58.4529 94.0341 59.2265 94.3794L91.4164 108.746Z" fill="#71F179"/>
<path fill-rule="evenodd" clip-rule="evenodd" d="M86.699 83.8164C86.5616 83.878 85.8482 84.1856 84.2225 84.7773C82.9294 85.2479 81.9976 85.5444 81.6701 85.6468C76.5953 87.2521 72.5578 87.7647 72.1896 86.753C71.8213 85.7413 75.2441 83.5399 80.1623 81.5041L81.3638 84.8052C81.6989 84.7091 82.6542 84.4222 83.9472 83.9516C85.4989 83.3868 86.2531 83.0412 86.3884 82.9777L85.1873 79.6778C90.2524 78.0786 94.2816 77.569 94.649 78.5784C95.0164 79.5878 91.6034 81.7869 86.6938 83.817L86.699 83.8164ZM83.9916 76.3739L90.9507 73.841L89.3111 69.3363L70.3641 76.2325L72.0037 80.7371L78.9616 78.2046L80.0363 81.1575C74.4727 83.4682 70.6158 86.1044 71.0904 87.4084C71.565 88.7124 76.2137 88.2515 81.9614 86.4466L85.4067 95.9125L90.4356 94.0822L86.989 84.6128C92.5396 82.3067 96.3899 79.6743 95.9157 78.3714C95.4415 77.0686 90.8034 77.5256 85.0652 79.3271L83.9916 76.3739Z" fill="#111111"/>
</g>
<g clip-path="url(#clip0_1096_6700)">
<path d="M185.266 339.478L153.005 345.251L156.153 231.917L145.399 233.842L145.663 222.5L174.829 217.281L188.272 229.421L185.266 339.478Z" fill="#2845EB"/>
<path d="M297.996 236.994L289.186 247.641L297.465 255.057L296.086 305.101L281.829 322.198L212.906 334.531L199.463 322.392L200.843 272.348L209.509 261.899L201.374 254.285L202.062 226.953L216.318 209.857L285.242 197.523L298.685 209.663L297.996 236.994ZM233.348 251.986L265.61 246.212L266.565 212.159L234.304 217.932L233.348 251.986ZM265.346 257.554L233.084 263.327L231.419 319.924L263.681 314.151L265.346 257.554Z" fill="#2845EB"/>
<path d="M334.667 312.742L322.097 314.992L322.318 307.485L348.075 276.474L348.503 261.93L361.072 259.68L360.851 267.187L335.031 298.209L334.667 312.742ZM314.724 279.842L314.889 273.612L320.443 266.951L338.917 263.645L344.154 268.375L343.989 274.605L338.442 281.331L319.968 284.637L314.724 279.842ZM327.245 278.935L331.434 278.185L331.704 269.336L327.514 270.086L327.245 278.935ZM368.281 301.06L362.726 307.721L344.253 311.027L338.952 306.308L339.117 300.078L344.728 293.341L363.201 290.035L368.446 294.83L368.281 301.06ZM355.925 295.737L351.735 296.487L351.466 305.336L355.656 304.586L355.925 295.737Z" fill="#2845EB"/>
<path fill-rule="evenodd" clip-rule="evenodd" d="M187.342 341.329L150.805 347.867L153.954 234.533L143.211 236.456L143.579 220.651L175.564 214.927L190.428 228.35L187.342 341.329ZM156.153 231.917L153.004 345.251L185.266 339.478L188.272 229.421L174.829 217.281L145.663 222.5L145.399 233.842L156.153 231.917ZM300.104 237.737L292.179 247.314L299.621 253.981L298.192 305.852L282.862 324.235L212.171 336.886L197.307 323.463L198.737 271.601L206.542 262.189L199.221 255.336L199.954 226.205L215.286 207.819L285.977 195.169L300.838 208.589L300.104 237.737ZM209.508 261.899L200.842 272.348L199.463 322.392L212.906 334.532L281.829 322.198L296.086 305.101L297.465 255.057L289.186 247.641L297.996 236.994L298.684 209.663L285.241 197.523L216.318 209.857L202.062 226.953L201.374 254.285L209.508 261.899ZM263.536 244.361L264.365 214.775L236.378 219.783L235.548 249.37L263.536 244.361ZM233.348 251.986L265.61 246.212L266.565 212.159L234.303 217.932L233.348 251.986ZM235.156 265.179L233.623 317.308L261.609 312.3L263.143 260.17L235.156 265.179ZM233.084 263.327L231.419 319.924L263.681 314.151L265.346 257.554L233.084 263.327ZM336.747 314.592L319.894 317.608L320.214 306.735L345.97 275.724L345.977 275.491L339.481 283.368L319.225 286.993L312.569 280.906L312.782 272.862L319.411 264.913L339.652 261.291L346.22 267.223L346.431 260.078L363.275 257.064L362.955 267.938L337.139 298.956L337.133 299.182L343.694 291.303L363.944 287.68L370.601 293.766L370.387 301.81L363.759 309.759L343.526 313.379L336.925 307.504L336.747 314.592ZM335.031 298.209L360.851 267.187L361.072 259.68L348.502 261.93L348.075 276.474L322.318 307.485L322.097 314.992L334.667 312.742L335.031 298.209ZM320.443 266.951L314.889 273.612L314.723 279.842L319.968 284.637L338.442 281.331L343.989 274.605L344.154 268.375L338.917 263.645L320.443 266.951ZM368.446 294.83L363.201 290.035L344.728 293.341L339.117 300.079L338.952 306.309L344.253 311.027L362.726 307.721L368.281 301.06L368.446 294.83ZM331.434 278.185L327.244 278.935L327.514 270.086L331.704 269.336L331.434 278.185ZM351.735 296.487L355.925 295.737L355.656 304.586L351.466 305.336L351.735 296.487Z" fill="black"/>
<path d="M180.285 335.116L148.023 340.89L151.171 227.556L140.417 229.48L140.681 218.139L169.847 212.92L183.29 225.06L180.285 335.116Z" fill="#948CF1"/>
<path d="M293.015 232.633L284.204 243.279L292.483 250.696L291.104 300.74L276.847 317.836L207.924 330.17L194.481 318.03L195.861 267.987L204.527 257.537L196.392 249.924L197.08 222.592L211.337 205.495L280.26 193.161L293.703 205.301L293.015 232.633ZM228.366 247.624L260.628 241.851L261.583 207.798L229.322 213.571L228.366 247.624ZM260.364 253.192L228.102 258.966L226.438 315.563L258.699 309.79L260.364 253.192Z" fill="#948CF1"/>
<path d="M329.685 308.381L317.116 310.63L317.336 303.124L343.093 272.113L343.521 257.568L356.09 255.319L355.869 262.826L330.049 293.848L329.685 308.381ZM309.742 275.481L309.907 269.251L315.461 262.59L333.935 259.284L339.172 264.014L339.007 270.244L333.46 276.97L314.986 280.276L309.742 275.481ZM322.263 274.573L326.453 273.824L326.722 264.975L322.532 265.725L322.263 274.573ZM363.299 296.699L357.744 303.36L339.271 306.666L333.97 301.947L334.135 295.717L339.746 288.979L358.219 285.674L363.464 290.469L363.299 296.699ZM350.943 291.376L346.753 292.126L346.484 300.975L350.674 300.225L350.943 291.376Z" fill="#948CF1"/>
<path fill-rule="evenodd" clip-rule="evenodd" d="M182.36 336.967L145.823 343.506L148.972 230.172L138.229 232.094L138.597 216.29L170.582 210.566L185.446 223.988L182.36 336.967ZM151.171 227.556L148.023 340.89L180.284 335.116L183.29 225.06L169.847 212.92L140.681 218.139L140.417 229.48L151.171 227.556ZM295.122 233.376L287.197 242.953L294.639 249.62L293.21 301.49L277.88 319.874L207.189 332.524L192.325 319.102L193.755 267.24L201.56 257.828L194.239 250.975L194.972 221.844L210.304 203.458L280.995 190.807L295.856 204.228L295.122 233.376ZM204.527 257.537L195.86 267.987L194.481 318.03L207.924 330.17L276.847 317.836L291.104 300.74L292.483 250.696L284.204 243.279L293.014 232.633L293.703 205.301L280.26 193.161L211.336 205.495L197.08 222.592L196.392 249.924L204.527 257.537ZM258.554 240L259.384 210.414L231.396 215.422L230.566 245.008L258.554 240ZM228.366 247.624L260.628 241.851L261.583 207.798L229.321 213.571L228.366 247.624ZM230.174 260.817L228.641 312.946L256.627 307.938L258.161 255.809L230.174 260.817ZM228.102 258.966L226.437 315.563L258.699 309.79L260.364 253.192L228.102 258.966ZM331.765 310.231L314.912 313.247L315.232 302.374L340.988 271.363L340.995 271.13L334.499 279.006L314.243 282.631L307.587 276.545L307.8 268.501L314.429 260.552L334.67 256.93L341.239 262.862L341.449 255.717L358.293 252.702L357.974 263.577L332.157 294.595L332.152 294.821L338.713 286.942L358.962 283.318L365.619 289.404L365.405 297.448L358.777 305.397L338.544 309.018L331.943 303.142L331.765 310.231ZM330.049 293.848L355.869 262.826L356.09 255.319L343.521 257.568L343.093 272.113L317.336 303.124L317.115 310.63L329.685 308.381L330.049 293.848ZM315.461 262.59L309.907 269.251L309.742 275.481L314.986 280.276L333.46 276.97L339.007 270.244L339.172 264.014L333.935 259.284L315.461 262.59ZM363.464 290.469L358.219 285.674L339.746 288.979L334.135 295.717L333.97 301.947L339.271 306.666L357.744 303.36L363.299 296.699L363.464 290.469ZM326.452 273.824L322.263 274.573L322.532 265.725L326.722 264.975L326.452 273.824ZM346.753 292.126L350.943 291.376L350.674 300.225L346.484 300.975L346.753 292.126Z" fill="black"/>
<path d="M175.303 330.755L143.041 336.528L146.189 223.195L135.435 225.119L135.7 213.778L164.866 208.558L178.309 220.698L175.303 330.755Z" fill="#71F179"/>
<path d="M288.033 228.272L279.222 238.918L287.502 246.335L286.123 296.378L271.866 313.475L202.943 325.809L189.5 313.669L190.879 263.625L199.545 253.176L191.41 245.562L192.099 218.231L206.355 201.134L275.278 188.8L288.721 200.94L288.033 228.272ZM223.385 243.263L255.647 237.49L256.602 203.436L224.34 209.21L223.385 243.263ZM255.383 248.831L223.121 254.604L221.456 311.202L253.718 305.428L255.383 248.831Z" fill="#71F179"/>
<path d="M324.704 304.02L312.134 306.269L312.355 298.762L338.111 267.751L338.539 253.207L351.109 250.958L350.888 258.464L325.068 289.487L324.704 304.02ZM304.76 271.119L304.925 264.889L310.48 258.228L328.953 254.922L334.191 259.652L334.026 265.882L328.478 272.609L310.005 275.915L304.76 271.119ZM317.281 270.212L321.471 269.462L321.74 260.614L317.55 261.363L317.281 270.212ZM358.317 292.337L352.763 298.998L334.29 302.304L328.989 297.586L329.154 291.356L334.765 284.618L353.238 281.312L358.483 286.107L358.317 292.337ZM345.962 287.015L341.772 287.764L341.502 296.613L345.692 295.863L345.962 287.015Z" fill="#71F179"/>
<path fill-rule="evenodd" clip-rule="evenodd" d="M177.379 332.606L140.842 339.144L143.99 225.811L133.248 227.733L133.616 211.928L165.601 206.204L180.464 219.627L177.379 332.606ZM146.189 223.195L143.041 336.528L175.303 330.755L178.308 220.698L164.865 208.558L135.699 213.778L135.435 225.119L146.189 223.195ZM290.141 229.015L282.215 238.591L289.658 245.258L288.228 297.129L272.898 315.513L202.207 328.163L187.344 314.74L188.773 262.878L196.579 253.466L189.257 246.613L189.991 217.482L205.322 199.096L276.014 186.446L290.875 199.867L290.141 229.015ZM199.545 253.176L190.879 263.625L189.5 313.669L202.943 325.809L271.866 313.475L286.122 296.378L287.502 246.335L279.222 238.918L288.033 228.272L288.721 200.94L275.278 188.8L206.355 201.134L192.098 218.231L191.41 245.562L199.545 253.176ZM253.572 235.639L254.402 206.052L226.415 211.061L225.585 240.647L253.572 235.639ZM223.385 243.263L255.647 237.49L256.602 203.436L224.34 209.21L223.385 243.263ZM225.193 256.456L223.659 308.585L251.646 303.577L253.179 251.448L225.193 256.456ZM223.121 254.604L221.456 311.202L253.718 305.429L255.383 248.831L223.121 254.604ZM326.784 305.87L309.931 308.886L310.251 298.012L336.007 267.001L336.014 266.768L329.518 274.645L309.262 278.27L302.605 272.184L302.819 264.14L309.447 256.191L329.689 252.568L336.257 258.5L336.467 251.355L353.312 248.341L352.992 259.216L327.176 290.234L327.17 290.459L333.731 282.581L353.981 278.957L360.637 285.043L360.424 293.087L353.795 301.036L333.563 304.657L326.962 298.781L326.784 305.87ZM325.068 289.487L350.888 258.464L351.109 250.958L338.539 253.207L338.111 267.751L312.355 298.762L312.134 306.269L324.704 304.02L325.068 289.487ZM310.48 258.228L304.925 264.889L304.76 271.119L310.005 275.915L328.478 272.609L334.026 265.882L334.191 259.652L328.953 254.922L310.48 258.228ZM358.483 286.107L353.238 281.312L334.765 284.618L329.154 291.356L328.988 297.586L334.289 302.304L352.763 298.998L358.317 292.337L358.483 286.107ZM321.471 269.462L317.281 270.212L317.55 261.363L321.74 260.614L321.471 269.462ZM341.772 287.764L345.962 287.015L345.692 295.863L341.502 296.613L341.772 287.764Z" fill="black"/>
<mask id="path-20-inside-1_1096_6700" fill="white">
<path fill-rule="evenodd" clip-rule="evenodd" d="M322.097 216.644C315.229 217.769 309.705 224.322 309.757 231.28L309.836 241.78C309.855 244.214 310.553 246.375 311.747 248.109C311.287 249.882 310.365 251.494 308.918 252.759C308.274 253.323 308.328 254.383 309.111 254.367C311.279 254.323 314.166 253.751 316.812 251.933C318.488 252.503 320.374 252.67 322.366 252.343L357.597 246.574C364.464 245.45 369.988 238.897 369.936 231.938L369.857 221.439C369.804 214.48 364.195 209.751 357.327 210.875L322.097 216.644Z"/>
</mask>
<path fill-rule="evenodd" clip-rule="evenodd" d="M322.097 216.644C315.229 217.769 309.705 224.322 309.757 231.28L309.836 241.78C309.855 244.214 310.553 246.375 311.747 248.109C311.287 249.882 310.365 251.494 308.918 252.759C308.274 253.323 308.328 254.383 309.111 254.367C311.279 254.323 314.166 253.751 316.812 251.933C318.488 252.503 320.374 252.67 322.366 252.343L357.597 246.574C364.464 245.45 369.988 238.897 369.936 231.938L369.857 221.439C369.804 214.48 364.195 209.751 357.327 210.875L322.097 216.644Z" fill="#2845EB"/>
<path d="M311.747 248.109L313.246 248.291L313.427 247.593L313.062 247.062L311.747 248.109ZM308.918 252.759L308.019 251.613L308.019 251.613L308.918 252.759ZM309.111 254.367L309.317 252.772L309.317 252.772L309.111 254.367ZM316.812 251.933L317.495 250.41L316.789 250.169L316.091 250.648L316.812 251.933ZM311.312 231.026C311.266 224.937 316.1 219.203 322.108 218.219L322.085 215.069C314.359 216.335 308.144 223.706 308.203 231.535L311.312 231.026ZM311.391 241.525L311.312 231.026L308.203 231.535L308.282 242.035L311.391 241.525ZM313.062 247.062C312.018 245.546 311.407 243.658 311.391 241.525L308.282 242.035C308.303 244.77 309.088 247.204 310.433 249.155L313.062 247.062ZM309.816 253.906C311.592 252.353 312.704 250.385 313.246 248.291L310.248 247.926C309.871 249.38 309.137 250.635 308.019 251.613L309.816 253.906ZM309.317 252.772C309.48 252.769 309.679 252.829 309.832 252.983C309.972 253.125 310.017 253.286 310.027 253.393C310.045 253.583 309.971 253.77 309.816 253.906L308.019 251.613C307.22 252.312 306.852 253.311 306.932 254.168C307.017 255.091 307.672 255.987 308.905 255.962L309.317 252.772ZM316.091 250.648C313.817 252.211 311.281 252.732 309.317 252.772L308.905 255.962C311.278 255.914 314.515 255.291 317.533 253.217L316.091 250.648ZM322.354 250.768C320.608 251.054 318.959 250.908 317.495 250.41L316.129 253.456C318.016 254.098 320.14 254.285 322.378 253.918L322.354 250.768ZM357.585 244.999L322.354 250.768L322.378 253.918L357.609 248.149L357.585 244.999ZM368.382 232.193C368.428 238.282 363.594 244.015 357.585 244.999L357.609 248.149C365.334 246.884 371.549 239.512 371.49 231.684L368.382 232.193ZM368.302 221.693L368.382 232.193L371.49 231.684L371.411 221.184L368.302 221.693ZM357.339 212.45C363.348 211.466 368.256 215.604 368.302 221.693L371.411 221.184C371.352 213.356 365.041 208.035 357.315 209.3L357.339 212.45ZM322.108 218.219L357.339 212.45L357.315 209.3L322.085 215.069L322.108 218.219Z" fill="black" mask="url(#path-20-inside-1_1096_6700)"/>
<path d="M330.338 230.455L330.378 235.697L332.264 235.388L332.194 226.12L330.308 226.429L330.326 228.845L327.322 229.336L327.334 230.947L330.338 230.455ZM320.559 235.692C322.253 234.963 323.821 233.6 324.403 232.124C325.006 233.406 326.577 234.255 328.305 234.423L328.291 232.622C326.644 232.372 325.353 231.121 325.326 229.308L325.311 227.37L323.439 227.676L323.453 229.56C323.467 231.403 322.198 233.073 320.546 233.89L320.559 235.692ZM332.518 238.626L332.506 237.043L323.399 238.534L323.381 236.023L321.481 236.334L321.512 240.428L332.518 238.626ZM334.026 233.022C335.762 232.533 337.36 231.533 337.969 229.998C338.586 231.332 340.194 231.807 341.947 231.725L341.934 230.019C340.357 230.086 338.881 229.33 338.867 227.542L338.867 227.473L341.776 226.997L341.764 225.386L338.882 225.858L338.873 224.725L337.001 225.032L337.009 226.165L334.113 226.639L334.125 228.25L337.021 227.775L337.022 227.844C337.035 229.632 335.588 230.866 334.013 231.316L334.026 233.022ZM345.318 231.569L345.293 228.348L346.91 228.083L346.897 226.432L345.281 226.696L345.26 223.98L343.374 224.289L343.432 231.878L345.318 231.569ZM343.407 233.987L343.43 236.976L345.356 236.66L345.322 232.088L334.707 233.826L334.719 235.409L343.407 233.987ZM347.816 228.454C350.523 227.97 352.618 226.67 353.416 225.227C354.221 226.408 356.316 227.021 359.051 226.614L359.039 225.086C356.439 225.457 354.369 224.593 354.358 223.092L354.352 222.409L352.44 222.722L352.445 223.405C352.456 224.906 350.417 226.429 347.805 226.912L347.816 228.454ZM352.577 230.216L352.595 232.605L354.44 232.303L354.422 229.914L359.595 229.067L359.583 227.511L347.298 229.523L347.31 231.079L352.577 230.216ZM359.122 234.27L359.11 232.741L349.923 234.245L349.905 231.788L348.032 232.095L348.063 236.081L359.122 234.27Z" fill="#2845EB"/>
<mask id="path-23-inside-2_1096_6700" fill="white">
<path fill-rule="evenodd" clip-rule="evenodd" d="M317.897 212.443C311.029 213.568 305.505 220.12 305.557 227.079L305.636 237.579C305.655 240.013 306.353 242.174 307.547 243.907C307.087 245.681 306.165 247.292 304.718 248.558C304.074 249.121 304.128 250.182 304.911 250.166C307.079 250.122 309.966 249.549 312.612 247.731C314.288 248.302 316.174 248.468 318.166 248.142L353.397 242.373C360.264 241.248 365.789 234.695 365.736 227.737L365.657 217.237C365.604 210.279 359.995 205.549 353.127 206.674L317.897 212.443Z"/>
</mask>
<path fill-rule="evenodd" clip-rule="evenodd" d="M317.897 212.443C311.029 213.568 305.505 220.12 305.557 227.079L305.636 237.579C305.655 240.013 306.353 242.174 307.547 243.907C307.087 245.681 306.165 247.292 304.718 248.558C304.074 249.121 304.128 250.182 304.911 250.166C307.079 250.122 309.966 249.549 312.612 247.731C314.288 248.302 316.174 248.468 318.166 248.142L353.397 242.373C360.264 241.248 365.789 234.695 365.736 227.737L365.657 217.237C365.604 210.279 359.995 205.549 353.127 206.674L317.897 212.443Z" fill="#948CF1"/>
<path d="M307.547 243.907L309.046 244.09L309.227 243.391L308.862 242.861L307.547 243.907ZM304.718 248.558L305.616 249.704L305.616 249.704L304.718 248.558ZM304.911 250.166L305.117 248.571L305.117 248.571L304.911 250.166ZM312.612 247.731L313.295 246.208L312.589 245.968L311.891 246.447L312.612 247.731ZM307.112 226.824C307.066 220.736 311.9 215.002 317.908 214.018L317.885 210.868C310.159 212.133 303.944 219.505 304.003 227.333L307.112 226.824ZM307.191 237.324L307.112 226.824L304.003 227.333L304.082 237.833L307.191 237.324ZM308.862 242.861C307.818 241.345 307.207 239.456 307.191 237.324L304.082 237.833C304.103 240.569 304.889 243.002 306.233 244.954L308.862 242.861ZM305.616 249.704C307.392 248.151 308.504 246.184 309.046 244.09L306.048 243.724C305.671 245.178 304.937 246.433 303.819 247.412L305.616 249.704ZM305.117 248.571C305.28 248.567 305.479 248.627 305.632 248.782C305.772 248.923 305.817 249.085 305.827 249.192C305.845 249.381 305.771 249.569 305.616 249.704L303.819 247.412C303.02 248.11 302.652 249.11 302.732 249.966C302.817 250.889 303.472 251.786 304.705 251.761L305.117 248.571ZM311.891 246.447C309.617 248.009 307.081 248.531 305.117 248.571L304.705 251.761C307.078 251.713 310.315 251.089 313.333 249.016L311.891 246.447ZM318.154 246.567C316.408 246.853 314.759 246.707 313.295 246.208L311.929 249.254C313.816 249.897 315.94 250.083 318.178 249.717L318.154 246.567ZM353.385 240.798L318.154 246.567L318.178 249.717L353.409 243.948L353.385 240.798ZM364.182 227.991C364.228 234.08 359.394 239.814 353.385 240.798L353.409 243.948C361.134 242.683 367.349 235.311 367.29 227.482L364.182 227.991ZM364.102 217.492L364.182 227.991L367.29 227.482L367.211 216.983L364.102 217.492ZM353.139 208.249C359.148 207.265 364.057 211.403 364.102 217.492L367.211 216.983C367.152 209.154 360.841 203.834 353.115 205.099L353.139 208.249ZM317.908 214.018L353.139 208.249L353.115 205.099L317.885 210.868L317.908 214.018Z" fill="black" mask="url(#path-23-inside-2_1096_6700)"/>
<path d="M326.138 226.255L326.177 231.496L328.063 231.187L327.993 221.919L326.108 222.228L326.126 224.644L323.122 225.136L323.134 226.747L326.138 226.255ZM316.359 231.491C318.053 230.763 319.62 229.399 320.203 227.924C320.806 229.205 322.377 230.055 324.104 230.223L324.091 228.421C322.443 228.172 321.153 226.921 321.126 225.108L321.111 223.169L319.238 223.476L319.253 225.36C319.267 227.202 317.998 228.872 316.345 229.69L316.359 231.491ZM328.317 234.426L328.305 232.842L319.199 234.334L319.18 231.822L317.281 232.133L317.312 236.228L328.317 234.426ZM329.826 228.821C331.562 228.332 333.159 227.333 333.768 225.798C334.385 227.132 335.994 227.606 337.747 227.524L337.734 225.818C336.156 225.885 334.68 225.129 334.667 223.341L334.666 223.273L337.576 222.796L337.564 221.186L334.681 221.658L334.673 220.525L332.8 220.831L332.809 221.964L329.913 222.439L329.925 224.049L332.821 223.575L332.821 223.643C332.835 225.431 331.388 226.666 329.813 227.115L329.826 228.821ZM341.117 227.369L341.093 224.147L342.709 223.883L342.697 222.231L341.08 222.496L341.06 219.78L339.174 220.088L339.231 227.678L341.117 227.369ZM339.207 229.786L339.229 232.775L341.156 232.46L341.121 227.887L330.506 229.626L330.518 231.209L339.207 229.786ZM343.616 224.254C346.323 223.769 348.417 222.47 349.216 221.027C350.02 222.207 352.115 222.821 354.85 222.414L354.839 220.885C352.238 221.256 350.168 220.393 350.157 218.891L350.152 218.209L348.239 218.522L348.244 219.204C348.256 220.706 346.217 222.229 343.604 222.711L343.616 224.254ZM348.377 226.016L348.395 228.405L350.24 228.102L350.222 225.714L355.395 224.867L355.383 223.311L343.098 225.322L343.11 226.878L348.377 226.016ZM354.921 230.069L354.91 228.54L345.723 230.045L345.704 227.588L343.832 227.894L343.862 231.88L354.921 230.069Z" fill="#948CF1"/>
<mask id="path-26-inside-3_1096_6700" fill="white">
<path fill-rule="evenodd" clip-rule="evenodd" d="M313.697 208.244C306.83 209.369 301.305 215.921 301.358 222.88L301.437 233.38C301.455 235.814 302.154 237.975 303.348 239.708C302.888 241.482 301.965 243.093 300.518 244.359C299.874 244.922 299.929 245.983 300.711 245.967C302.88 245.923 305.766 245.35 308.413 243.532C310.088 244.103 311.974 244.269 313.966 243.943L349.197 238.174C356.065 237.049 361.589 230.497 361.537 223.538L361.457 213.038C361.405 206.08 355.795 201.35 348.928 202.475L313.697 208.244Z"/>
</mask>
<path fill-rule="evenodd" clip-rule="evenodd" d="M313.697 208.244C306.83 209.369 301.305 215.921 301.358 222.88L301.437 233.38C301.455 235.814 302.154 237.975 303.348 239.708C302.888 241.482 301.965 243.093 300.518 244.359C299.874 244.922 299.929 245.983 300.711 245.967C302.88 245.923 305.766 245.35 308.413 243.532C310.088 244.103 311.974 244.269 313.966 243.943L349.197 238.174C356.065 237.049 361.589 230.497 361.537 223.538L361.457 213.038C361.405 206.08 355.795 201.35 348.928 202.475L313.697 208.244Z" fill="#71F179"/>
<path d="M303.348 239.708L304.847 239.891L305.028 239.192L304.662 238.662L303.348 239.708ZM300.518 244.359L301.417 245.506L301.417 245.506L300.518 244.359ZM300.711 245.967L300.917 244.372L300.917 244.372L300.711 245.967ZM308.413 243.532L309.096 242.009L308.389 241.769L307.692 242.248L308.413 243.532ZM313.966 243.943L313.978 245.518L313.966 243.943ZM349.197 238.174L349.185 236.599L349.197 238.174ZM302.912 222.625C302.866 216.537 307.7 210.803 313.709 209.819L313.685 206.669C305.959 207.934 299.744 215.306 299.804 223.134L302.912 222.625ZM302.991 233.125L302.912 222.625L299.804 223.134L299.883 233.634L302.991 233.125ZM304.662 238.662C303.618 237.146 303.007 235.257 302.991 233.125L299.883 233.634C299.903 236.37 300.689 238.804 302.033 240.755L304.662 238.662ZM301.417 245.506C303.192 243.952 304.304 241.985 304.847 239.891L301.849 239.525C301.472 240.979 300.738 242.234 299.62 243.213L301.417 245.506ZM300.917 244.372C301.08 244.368 301.279 244.428 301.433 244.583C301.573 244.724 301.618 244.886 301.628 244.993C301.645 245.182 301.572 245.37 301.417 245.506L299.62 243.213C298.821 243.911 298.453 244.911 298.532 245.767C298.618 246.69 299.272 247.587 300.505 247.562L300.917 244.372ZM307.692 242.248C305.418 243.81 302.882 244.332 300.917 244.372L300.505 247.562C302.878 247.514 306.115 246.89 309.134 244.817L307.692 242.248ZM313.955 242.368C312.209 242.654 310.56 242.508 309.096 242.009L307.73 245.055C309.616 245.698 311.74 245.885 313.978 245.518L313.955 242.368ZM349.185 236.599L313.955 242.368L313.978 245.518L349.209 239.749L349.185 236.599ZM359.982 223.792C360.028 229.881 355.194 235.615 349.185 236.599L349.209 239.749C356.935 238.484 363.15 231.112 363.091 223.283L359.982 223.792ZM359.903 213.293L359.982 223.792L363.091 223.283L363.012 212.784L359.903 213.293ZM348.94 204.05C354.949 203.066 359.857 207.204 359.903 213.293L363.012 212.784C362.953 204.955 356.642 199.635 348.916 200.9L348.94 204.05ZM313.709 209.819L348.94 204.05L348.916 200.9L313.685 206.669L313.709 209.819Z" fill="black" mask="url(#path-26-inside-3_1096_6700)"/>
<path d="M321.938 222.055L321.978 227.296L323.864 226.987L323.794 217.719L321.908 218.028L321.926 220.444L318.922 220.936L318.935 222.546L321.938 222.055ZM312.159 227.291C313.853 226.563 315.421 225.199 316.003 223.723C316.606 225.005 318.177 225.855 319.905 226.023L319.891 224.221C318.244 223.972 316.953 222.721 316.926 220.907L316.911 218.969L315.039 219.276L315.053 221.159C315.067 223.002 313.798 224.672 312.146 225.489L312.159 227.291ZM324.118 230.226L324.106 228.642L315 230.133L314.981 227.622L313.081 227.933L313.112 232.028L324.118 230.226ZM325.626 224.621C327.363 224.132 328.96 223.132 329.569 221.598C330.186 222.932 331.794 223.406 333.547 223.324L333.534 221.618C331.957 221.685 330.481 220.929 330.467 219.141L330.467 219.073L333.377 218.596L333.364 216.986L330.482 217.458L330.473 216.325L328.601 216.631L328.609 217.764L325.713 218.238L325.725 219.849L328.621 219.375L328.622 219.443C328.635 221.231 327.188 222.466 325.613 222.915L325.626 224.621ZM336.918 223.169L336.893 219.947L338.51 219.683L338.497 218.031L336.881 218.296L336.86 215.579L334.975 215.888L335.032 223.477L336.918 223.169ZM335.007 225.586L335.03 228.575L336.956 228.26L336.922 223.687L326.307 225.425L326.319 227.009L335.007 225.586ZM339.416 220.053C342.124 219.569 344.218 218.27 345.016 216.827C345.821 218.007 347.916 218.621 350.651 218.214L350.639 216.685C348.039 217.056 345.969 216.192 345.958 214.691L345.952 214.008L344.04 214.322L344.045 215.004C344.056 216.506 342.018 218.028 339.405 218.511L339.416 220.053ZM344.177 221.816L344.195 224.204L346.041 223.902L346.023 221.514L351.195 220.667L351.184 219.11L338.898 221.122L338.91 222.678L344.177 221.816ZM350.722 225.869L350.71 224.34L341.524 225.845L341.505 223.388L339.633 223.694L339.663 227.68L350.722 225.869Z" fill="#0B0624"/>
<path d="M132.555 128.014C137.137 127.293 140.277 124.901 142.143 122.174C143.897 124.418 146.95 125.985 151.549 125.481L151.636 121.544C147.065 121.803 144.674 118.833 144.729 116.369L144.771 114.478L139.864 115.132L139.822 117.023C139.767 119.487 137.23 123.114 132.642 124.077L132.555 128.014ZM151.893 133.462L151.984 129.393L131.921 132.068L131.831 136.137L151.893 133.462Z" fill="white"/>
<path d="M168.939 131.518L169.393 111.085L165.577 111.594L165.355 121.601L162.411 121.994L162.327 125.733L165.271 125.34L165.123 132.027L168.939 131.518ZM173.693 130.884L174.147 110.451L170.244 110.972L169.79 131.404L173.693 130.884ZM164.083 116.179L164.167 112.44L154.506 113.728L154.423 117.467L164.083 116.179ZM164.612 130.56L164.698 126.667L158.21 128.058L158.35 121.768L163.758 121.047L163.839 117.418L154.396 118.677L154.081 132.841L164.612 130.56Z" fill="white"/>
<path d="M195.26 128.008L195.714 107.575L190.808 108.23L190.354 128.663L195.26 128.008ZM182.031 129.443C185.432 128.99 188.273 126.418 188.345 123.185L188.542 114.277C188.614 111.044 185.872 109.217 182.47 109.67C179.09 110.121 176.272 112.69 176.2 115.923L176.002 124.831C175.93 128.064 178.651 129.894 182.031 129.443ZM182.179 125.718C181.241 125.843 180.625 125.201 180.642 124.431L180.849 115.084C180.866 114.358 181.516 113.482 182.453 113.357C183.391 113.232 184.028 113.936 184.011 114.662L183.804 124.01C183.787 124.78 183.116 125.593 182.179 125.718Z" fill="white"/>
<path d="M216.843 111.71L217.001 104.606L212.203 105.245L212.179 106.323L203.195 107.521L203.219 106.443L198.465 107.077L198.307 114.181L216.843 111.71ZM203.138 110.094L212.122 108.896L212.103 109.776L203.118 110.974L203.138 110.094ZM217.518 115.589L217.588 112.422L197.526 115.097L197.455 118.264L217.518 115.589ZM216.871 125.127L216.926 122.664L202.838 124.542L202.856 123.75L216.616 121.915L216.734 116.615L198.198 119.086L198.146 121.418L211.906 119.583L211.889 120.353L198.129 122.187L198.008 127.642L216.871 125.127Z" fill="white"/>
<path d="M226.766 110.146L226.684 113.863L239.92 112.098L239.479 117.288L244.189 116.66L245.444 101.274L226.69 103.774L226.602 107.733L240.45 105.887L240.243 108.349L226.766 110.146ZM236.538 113.623L231.828 114.251L231.725 118.87L225.685 119.676L225.597 123.635L245.659 120.96L245.747 117.001L236.436 118.242L236.538 113.623Z" fill="white"/>
<path d="M254.185 112.038C257.565 111.587 260.374 109.436 260.444 106.269L260.496 103.938C260.568 100.705 257.838 99.2923 254.458 99.7429C251.056 100.197 248.247 102.347 248.175 105.581L248.123 107.912C248.053 111.079 250.783 112.491 254.185 112.038ZM267.343 112.849L267.673 97.9809L262.766 98.6351L262.436 113.503L267.343 112.849ZM254.26 108.673C253.409 108.786 252.811 108.318 252.828 107.548L252.891 104.689C252.908 103.919 253.533 103.222 254.383 103.108C255.19 103.001 255.831 103.529 255.814 104.299L255.75 107.158C255.733 107.928 255.066 108.565 254.26 108.673ZM267.546 118.37L267.626 114.763L253.692 116.621L253.767 113.234L248.904 113.882L248.748 120.877L267.546 118.37Z" fill="white"/>
<path d="M285.938 99.6903C285.704 97.4846 283.69 96.1743 281.334 96.4884C278.805 96.8256 276.584 98.9419 276.527 101.471L276.282 112.535C276.225 115.064 278.365 116.599 280.895 116.261C283.425 115.924 285.646 113.808 285.702 111.279L285.709 110.971L287.345 110.753L287.234 115.745L291.05 115.236L291.504 94.8035L287.688 95.3123L287.595 99.4693L285.938 99.6903ZM291.9 115.123L295.804 114.603L296.258 94.1696L292.354 94.6901L291.9 115.123ZM282.02 111.638C282.009 112.1 281.5 112.519 281.064 112.577C280.628 112.635 280.134 112.35 280.144 111.888L280.384 101.089C280.395 100.627 280.904 100.208 281.34 100.15C281.776 100.092 282.27 100.377 282.26 100.839L282.02 111.638ZM285.792 107.232L285.877 103.426L287.512 103.208L287.428 107.013L285.792 107.232Z" fill="white"/>
<path d="M297.781 113.681C300.678 112.483 303.096 110.297 304.633 107.658C306.061 109.924 308.397 111.454 311.258 111.884L311.364 107.111C308.707 106.347 307.073 104.504 307.172 100.061L307.204 98.6091L311.348 98.0567L311.43 94.3396L307.352 94.8833L307.406 92.4639L302.521 93.1152L302.468 95.5346L298.39 96.0783L298.307 99.7954L302.472 99.2401L302.44 100.692C302.342 105.113 300.572 107.454 297.887 108.908L297.781 113.681ZM317.371 111.727L317.825 91.294L312.918 91.9482L312.464 112.381L317.371 111.727Z" fill="white"/>
<path d="M345.716 107.948L346.17 87.5147L341.263 88.1689L340.809 108.602L345.716 107.948ZM335.02 99.0889C337.658 98.7371 339.604 96.2847 339.665 93.5354C339.727 90.786 337.878 88.8395 335.24 89.1914L331.314 89.7147C328.676 90.0665 326.73 92.519 326.669 95.2683C326.607 98.0176 328.456 99.9641 331.094 99.6123L335.02 99.0889ZM331.958 95.9665C331.348 96.0479 330.882 95.452 330.899 94.7262C330.916 93.9564 331.41 93.2326 332.021 93.1512L334.376 92.8372C335.008 92.7528 335.496 93.3238 335.478 94.1156C335.462 94.8414 334.946 95.5681 334.313 95.6525L331.958 95.9665ZM333.678 109.553L335.249 103.444L340.395 102.758L340.474 99.2389L326.103 101.155L326.025 104.674L330.43 104.087L328.859 110.195L333.678 109.553Z" fill="white"/>
<path d="M348.862 94.524L348.78 98.2411L361.689 96.5198L361.265 100.94L366.193 100.283L367.555 84.9923L348.801 87.4928L348.713 91.4738L362.342 89.6566L362.056 92.7649L348.862 94.524ZM347.708 107.353L367.77 104.678L367.86 100.609L347.798 103.284L347.708 107.353Z" fill="white"/>
<path d="M145.661 146.822L138.738 147.745C138.696 149.653 136.444 151.711 134.446 151.978L134.326 157.377L137.966 156.891L137.44 180.537L144.934 179.538L145.661 146.822Z" fill="white"/>
<path d="M148.322 155.654C148.254 158.713 149.676 160.354 151.938 161.021C149.49 162.316 147.774 164.303 147.704 167.435L147.593 172.437C147.48 177.548 151.959 179.319 156.99 178.648C162.022 177.978 166.606 174.998 166.72 169.887L166.831 164.884C166.901 161.753 165.263 160.213 162.822 159.57C165.128 158.294 166.667 156.258 166.735 153.199L166.789 150.752C166.903 145.641 162.781 143.822 157.749 144.493C152.718 145.164 148.49 148.096 148.376 153.207L148.322 155.654ZM155.513 152.255C155.539 151.103 156.487 150.044 157.629 149.892C158.771 149.739 159.678 150.551 159.653 151.703L159.582 154.87C159.557 156.022 158.608 157.081 157.466 157.234C156.324 157.386 155.417 156.574 155.443 155.422L155.513 152.255ZM155.222 165.356C155.248 164.204 156.196 163.145 157.338 162.992C158.48 162.84 159.387 163.652 159.361 164.804L159.234 170.526C159.209 171.678 158.26 172.738 157.118 172.89C155.976 173.042 155.069 172.23 155.095 171.078L155.222 165.356Z" fill="white"/>
<path d="M193.665 140.063L188.134 140.8L175.187 175.863L180.718 175.126L193.665 140.063ZM169.836 157.271C169.773 160.114 172.344 161.279 175.556 160.85C178.767 160.422 181.406 158.563 181.469 155.72L181.673 146.542C181.735 143.771 179.165 142.535 175.953 142.963C172.742 143.391 170.102 145.322 170.04 148.093L169.836 157.271ZM174.964 149.052C174.973 148.656 175.373 148.279 175.837 148.217C176.3 148.156 176.686 148.427 176.677 148.823L176.545 154.762C176.535 155.194 176.136 155.57 175.672 155.632C175.208 155.694 174.823 155.422 174.832 154.99L174.964 149.052ZM187.107 169.394C187.044 172.237 189.615 173.401 192.827 172.973C196.038 172.545 198.677 170.686 198.74 167.843L198.944 158.665C199.005 155.894 196.436 154.657 193.224 155.086C190.013 155.514 187.372 157.445 187.311 160.216L187.107 169.394ZM192.235 161.174C192.244 160.778 192.643 160.402 193.107 160.34C193.571 160.278 193.957 160.55 193.948 160.946L193.816 166.884C193.806 167.316 193.406 167.693 192.943 167.754C192.479 167.816 192.093 167.545 192.103 167.113L192.235 161.174Z" fill="white"/>
<path d="M233.003 151.923L232.982 152.894L239.048 152.086L239.506 131.463L233.44 132.272L233.087 148.144L227.235 148.924L227.151 152.703L233.003 151.923ZM246.756 151.058L247.214 130.435L240.934 131.272L240.475 151.895L246.756 151.058ZM214.629 139.839C214.571 142.431 216.487 144.257 219.806 143.814L226.265 142.953C229.583 142.51 231.628 140.157 231.686 137.565C231.744 134.938 229.792 133.117 226.473 133.559L220.015 134.42C216.696 134.863 214.687 137.212 214.629 139.839ZM221.565 139.919C221.029 139.991 220.611 139.616 220.623 139.076C220.636 138.5 221.073 138.011 221.609 137.94L224.892 137.502C225.427 137.431 225.845 137.806 225.833 138.381C225.821 138.921 225.383 139.41 224.848 139.482L221.565 139.919ZM219.259 149.198L216.888 155.04L223.347 154.179L225.718 148.337L232.213 147.471L232.313 142.972L214.149 145.394L214.049 149.893L219.259 149.198ZM247.006 163.799L247.089 160.056L223.823 163.158L223.843 162.259L246.574 159.228L246.74 151.778L216.123 155.86L216.044 159.387L238.954 156.333L238.936 157.124L216.027 160.179L215.854 167.953L247.006 163.799Z" fill="#ABA4FF"/>
<path d="M274.541 133.502L270.723 134.011C270.847 133.241 270.937 132.403 270.955 131.576L271.039 127.797L250.77 130.499L250.662 135.358L264.044 133.574C264.03 134.222 263.945 134.807 263.79 135.402L250.979 137.11L250.871 142.005L259.863 140.806C257.439 142.6 254.067 143.875 250.282 144.487L250.174 149.346C257.927 147.882 264.321 145.127 267.874 140.527L274.404 139.656L274.258 146.243L282.109 145.196L282.541 125.725L274.691 126.771L274.541 133.502ZM273.933 159.276L273.912 160.212L281.798 159.16L282.093 145.916L251.832 149.95L251.538 163.195L273.933 159.276ZM274.087 152.33L274.051 153.949L259.588 156.38L259.635 154.257L274.087 152.33Z" fill="#ABA4FF"/>
<path d="M327.942 123.69L328.032 119.659L297.7 123.704L297.611 127.735L327.942 123.69ZM328.102 134.111L328.194 129.972L305.392 133.013L305.421 131.717L327.652 128.753L327.737 124.902L297.584 128.922L297.378 138.208L328.102 134.111ZM328.805 140.907L328.925 135.509L296.095 139.886L295.975 145.285L328.805 140.907ZM319.883 148.52L319.751 154.459L327.281 153.455L327.522 142.586L297.012 146.654L296.903 151.584L319.883 148.52Z" fill="#ABA4FF"/>
<path d="M362.981 139.975L363.208 129.754L366.919 129.259L367.064 122.744L363.353 123.239L363.538 114.925L355.687 115.972L355.13 141.022L362.981 139.975ZM352.844 122.236L352.963 116.873L332.837 119.557L332.718 124.92L352.844 122.236ZM352.873 136.945L353 131.222L350.074 131.612L351.04 123.374L344.438 124.254L343.651 132.469L341.188 132.797L340.763 124.744L334.161 125.624L334.73 133.658L332.16 134.001L332.033 139.723L352.873 136.945ZM363.508 148.266L363.643 142.183L341.698 145.109L341.809 140.107L333.851 141.168L333.605 152.253L363.508 148.266Z" fill="#ABA4FF"/>
<path d="M186.604 82.6594L183.135 83.1219L183.081 85.5276L185.995 85.1391L185.976 86.0002L183.062 86.3887L183.001 89.1224C183.9 88.9934 184.649 88.8664 185.246 88.7414C185.848 88.6111 186.466 88.4469 187.101 88.2487L187.177 89.1108C186.523 89.3297 185.882 89.5015 185.253 89.6262C184.629 89.7503 183.786 89.8854 182.724 90.0315L181.965 90.1327L182.137 82.3964L186.623 81.7983L186.604 82.6594ZM186.648 84.9157L188.424 84.679L188.52 80.3597L189.536 80.2242L189.287 91.4461L188.27 91.5816L188.404 85.5674L186.629 85.8041L186.648 84.9157ZM190.979 79.732L192.009 79.5947L191.739 91.746L190.709 91.8833L190.979 79.732Z" fill="#71F179"/>
<path d="M199.783 80.616L195.324 81.2105L195.187 87.4023L195.444 87.368C196.51 87.2258 197.419 87.0774 198.17 86.9228C198.926 86.763 199.691 86.5564 200.467 86.303L200.583 87.1734C199.725 87.4513 198.885 87.6746 198.062 87.8435C197.243 88.0117 196.228 88.1766 195.017 88.338L194.096 88.4608L194.274 80.4511L199.803 79.7139L199.783 80.616ZM199.012 83.0764L202.522 82.6084L202.62 78.1798L203.691 78.0371L203.42 90.2157L202.35 90.3585L202.502 83.4969L198.992 83.9649L199.012 83.0764Z" fill="#71F179"/>
<path d="M206.297 91.4948L205.294 91.6285L206.122 87.8113L207.437 87.636L206.297 91.4948Z" fill="#71F179"/>
<path d="M220.931 76.8832L220.785 83.4304C220.77 84.1047 220.599 84.7318 220.27 85.3116C219.942 85.8868 219.486 86.3656 218.901 86.748C218.316 87.1258 217.644 87.3653 216.885 87.4665C216.126 87.5676 215.461 87.5064 214.889 87.2828C214.318 87.0547 213.88 86.6951 213.576 86.2042C213.271 85.7087 213.127 85.1238 213.142 84.4495L213.287 77.9023L214.507 77.7397L214.364 84.1912C214.353 84.6696 214.447 85.0818 214.647 85.4277C214.846 85.7736 215.14 86.0274 215.529 86.1891C215.921 86.3457 216.382 86.3888 216.911 86.3183C217.439 86.2478 217.902 86.0816 218.3 85.8196C218.698 85.5531 219.005 85.2192 219.221 84.8178C219.437 84.4165 219.552 83.9764 219.568 83.4974L219.711 77.0458L220.931 76.8832Z" fill="#71F179"/>
<path d="M228.397 78.368C228.372 78.0533 228.265 77.795 228.076 77.5931C227.887 77.3866 227.636 77.2453 227.322 77.169C227.009 77.0881 226.655 77.0739 226.262 77.1263C225.838 77.1829 225.461 77.3035 225.133 77.4881C224.805 77.6682 224.547 77.8933 224.361 78.1634C224.175 78.4335 224.078 78.7258 224.071 79.0401C224.066 79.4997 224.245 79.8278 224.61 80.0244C224.975 80.2165 225.416 80.3417 225.933 80.4L226.903 80.5433C227.657 80.638 228.303 80.8517 228.841 81.1843C229.378 81.517 229.638 82.091 229.62 82.9066C229.608 83.4488 229.457 83.9572 229.167 84.432C228.878 84.9021 228.461 85.2984 227.918 85.6206C227.375 85.9429 226.733 86.1534 225.992 86.2522C225.296 86.345 224.691 86.3121 224.177 86.1535C223.667 85.9898 223.27 85.7225 222.985 85.3516C222.701 84.9761 222.545 84.5178 222.516 83.9764L223.763 83.8102C223.787 84.1614 223.902 84.4458 224.109 84.6635C224.315 84.8813 224.585 85.0293 224.916 85.1078C225.252 85.1811 225.619 85.1889 226.017 85.1314C226.469 85.0712 226.875 84.9443 227.235 84.751C227.599 84.557 227.886 84.312 228.096 84.0161C228.309 83.715 228.42 83.3891 228.428 83.0383C228.435 82.733 228.355 82.4893 228.188 82.3072C228.025 82.1244 227.807 81.9876 227.535 81.8968C227.262 81.806 226.926 81.7304 226.526 81.6701L225.327 81.5029C224.529 81.3732 223.917 81.1276 223.493 80.7663C223.073 80.4043 222.872 79.8996 222.891 79.252C222.903 78.7053 223.061 78.2027 223.364 77.7444C223.667 77.2815 224.078 76.9019 224.598 76.6054C225.119 76.3044 225.695 76.1117 226.327 76.0274C226.951 75.9443 227.508 75.9835 228 76.145C228.497 76.306 228.885 76.5677 229.165 76.93C229.445 77.2879 229.587 77.7142 229.589 78.209L228.397 78.368Z" fill="#71F179"/>
<path d="M231.308 85.3662L231.528 75.4702L234.699 75.0474C235.648 74.9209 236.459 75.0104 237.132 75.3158C237.806 75.6167 238.315 76.1144 238.66 76.8088C239.005 77.4988 239.166 78.354 239.143 79.3746C239.12 80.4043 238.918 81.3148 238.535 82.1063C238.153 82.8977 237.607 83.5383 236.898 84.0281C236.189 84.5178 235.342 84.8283 234.358 84.9596L231.308 85.3662ZM234.301 83.877C235.48 83.7198 236.375 83.2643 236.986 82.5105C237.602 81.7515 237.923 80.7592 237.951 79.5336C237.968 78.7317 237.855 78.0609 237.61 77.5211C237.366 76.9814 236.989 76.5932 236.481 76.3566C235.973 76.12 235.344 76.0517 234.594 76.1517L232.724 76.4011L232.552 84.1101L234.301 83.877Z" fill="#71F179"/>
<path d="M247.667 76.4255C247.587 75.9956 247.417 75.6413 247.157 75.3624C246.898 75.079 246.578 74.8809 246.197 74.7681C245.822 74.6547 245.415 74.6272 244.976 74.6856C244.376 74.7657 243.832 74.9903 243.347 75.3594C242.866 75.7279 242.481 76.2267 242.192 76.8557C241.903 77.4848 241.75 78.2139 241.731 79.0431C241.713 79.8678 241.835 80.5579 242.097 81.1135C242.36 81.669 242.725 82.0678 243.192 82.3098C243.664 82.5513 244.201 82.6342 244.801 82.5586C245.24 82.4957 245.65 82.3591 246.033 82.1491C246.416 81.9345 246.745 81.6522 247.018 81.3023C247.292 80.9524 247.481 80.5524 247.585 80.1024L248.805 79.9397C248.673 80.616 248.416 81.2249 248.035 81.7664C247.654 82.3033 247.18 82.7389 246.614 83.0733C246.053 83.4071 245.44 83.6183 244.776 83.7068C243.936 83.8188 243.19 83.7115 242.54 83.3848C241.894 83.0576 241.395 82.5359 241.041 81.8198C240.693 81.0986 240.53 80.2255 240.552 79.2003C240.575 78.1752 240.778 77.2555 241.161 76.4413C241.548 75.6219 242.074 74.9612 242.738 74.4593C243.407 73.9567 244.162 73.6495 245.002 73.5374C245.666 73.4489 246.273 73.4974 246.823 73.683C247.373 73.8641 247.827 74.176 248.187 74.6187C248.551 75.0562 248.784 75.6043 248.887 76.2629L247.667 76.4255Z" fill="#71F179"/>
<path d="M257.624 73.449C257.613 73.9456 257.726 74.4074 257.965 74.8345C258.207 75.2609 258.551 75.6217 258.995 75.9169C259.438 76.2075 259.95 76.405 260.528 76.5096L260.009 77.4102C259.327 77.2785 258.733 77.0237 258.228 76.6459C257.723 76.2681 257.344 75.8008 257.091 75.244C256.819 75.9435 256.41 76.5817 255.866 77.1585C255.326 77.7347 254.699 78.1954 253.984 78.5405L253.488 77.7481C254.08 77.4739 254.606 77.1176 255.066 76.6792C255.531 76.2356 255.895 75.7464 256.159 75.2115C256.428 74.676 256.568 74.1348 256.58 73.5881L256.587 73.3011L253.863 73.6643L253.882 72.7895L256.606 72.4263L256.639 70.9364L257.71 70.7937L257.677 72.2835L260.374 71.924L260.354 72.7987L257.63 73.1619L257.624 73.449ZM254.789 82.4398C255.506 82.2216 256.179 81.9092 256.81 81.5026C257.441 81.0915 257.951 80.626 258.341 80.1061C258.735 79.581 258.941 79.0471 258.957 78.5043L258.963 78.2446L260.047 78.1001L260.041 78.3598C260.029 78.9156 260.205 79.4055 260.57 79.8293C260.934 80.2486 261.427 80.5759 262.048 80.8111C262.668 81.0463 263.343 81.1766 264.072 81.2021L263.606 82.1091C262.666 82.0665 261.822 81.8588 261.073 81.4861C260.325 81.118 259.784 80.6132 259.452 79.9716C259.084 80.7065 258.513 81.3618 257.739 81.9375C256.965 82.5131 256.107 82.9456 255.163 83.2349L254.789 82.4398ZM259.963 73.982L262.416 73.655L262.493 70.1968L263.563 70.0541L263.376 78.4876L262.305 78.6303L262.396 74.5571L259.943 74.8841L259.963 73.982Z" fill="#71F179"/>
<path d="M279.109 80.0967L278.079 80.234L278.349 68.0827L279.379 67.9454L279.109 80.0967ZM269.084 74.5511C269.103 73.6991 269.226 72.9423 269.452 72.2807C269.683 71.6139 269.997 71.0815 270.393 70.6834C270.789 70.2854 271.247 70.0517 271.767 69.9824C272.277 69.9189 272.723 70.0276 273.104 70.3084C273.485 70.5892 273.777 71.0227 273.98 71.6088L275.898 71.3531L275.958 68.6605L276.974 68.5249L276.724 79.8014L275.707 79.937L275.796 75.9458L273.878 76.2014C273.648 76.8454 273.334 77.3619 272.938 77.7509C272.543 78.1398 272.089 78.366 271.579 78.4296C271.059 78.4988 270.609 78.3885 270.228 78.0986C269.848 77.8041 269.556 77.3524 269.353 76.7434C269.155 76.1339 269.065 75.4031 269.084 74.5511ZM270.074 74.385C270.06 75.0411 270.11 75.6068 270.226 76.082C270.346 76.552 270.523 76.9032 270.757 77.1355C270.99 77.3633 271.272 77.4529 271.602 77.4044C271.927 77.3656 272.214 77.2001 272.464 76.9079C272.714 76.6156 272.909 76.2193 273.051 75.7189C273.193 75.2185 273.271 74.6425 273.286 73.991C273.3 73.3394 273.247 72.7809 273.127 72.3154C273.007 71.8454 272.828 71.4968 272.589 71.2696C272.351 71.0424 272.069 70.9505 271.744 70.9939C271.419 71.0373 271.132 71.2051 270.882 71.4973C270.637 71.7843 270.443 72.1758 270.302 72.6717C270.165 73.1669 270.089 73.7381 270.074 74.385ZM274.184 72.4675C274.256 72.8849 274.286 73.3488 274.275 73.8591C274.264 74.3511 274.215 74.821 274.129 75.2686L275.816 75.0436L275.878 72.2416L274.184 72.4675Z" fill="#71F179"/>
<path d="M290.709 78.55L289.638 78.6927L289.908 66.5414L290.979 66.3987L290.709 78.55ZM281.09 76.6572C281.688 76.3049 282.232 75.8394 282.722 75.2607C283.217 74.6769 283.61 74.034 283.9 73.332C284.191 72.6301 284.343 71.9306 284.359 71.2335L284.38 70.263L281.548 70.6407L281.568 69.7659L284.386 69.39L284.428 67.5038L285.485 67.3628L285.443 69.2491L288.249 68.8751L288.229 69.7498L285.424 70.1239L285.402 71.0943C285.388 71.7595 285.513 72.3924 285.779 72.9929C286.05 73.5928 286.425 74.1083 286.907 74.5393C287.388 74.9657 287.926 75.2687 288.521 75.4483L287.907 76.3616C287.213 76.1451 286.596 75.7618 286.054 75.2117C285.517 74.661 285.117 74.0034 284.855 73.2388C284.565 74.1224 284.137 74.9335 283.571 75.6722C283.01 76.4057 282.375 76.9855 281.668 77.4114L281.09 76.6572Z" fill="#71F179"/>
<path d="M305.851 68.4224L307.667 68.1802L307.647 69.0824L305.831 69.3245L305.738 73.5207L304.681 73.6617L304.883 64.5584L305.94 64.4175L305.851 68.4224ZM296.515 67.1596L299.578 66.7512L299.611 65.2613L300.668 65.1204L300.635 66.6103L303.698 66.2019L303.679 67.0767L296.496 68.0343L296.515 67.1596ZM297.122 70.8809C297.132 70.4253 297.261 70.0107 297.508 69.637C297.755 69.2634 298.099 68.954 298.542 68.7088C298.984 68.4635 299.494 68.3024 300.072 68.2253C300.642 68.1494 301.141 68.1759 301.57 68.3049C302.004 68.4333 302.34 68.6521 302.576 68.9613C302.812 69.2704 302.928 69.6525 302.922 70.1076C302.908 70.5592 302.775 70.9722 302.523 71.3464C302.272 71.7161 301.925 72.0213 301.483 72.2619C301.045 72.502 300.541 72.66 299.972 72.7359C299.394 72.813 298.888 72.7896 298.454 72.6658C298.02 72.542 297.687 72.3274 297.455 72.0222C297.223 71.7124 297.112 71.332 297.122 70.8809ZM298.138 70.7454C298.132 71.0279 298.203 71.266 298.352 71.4596C298.501 71.6487 298.717 71.7813 298.999 71.8572C299.285 71.9326 299.616 71.943 299.991 71.8884C300.361 71.8436 300.69 71.7453 300.977 71.5934C301.269 71.441 301.496 71.2494 301.659 71.0187C301.822 70.7835 301.908 70.5244 301.919 70.2413C301.921 69.9594 301.845 69.7219 301.692 69.5289C301.539 69.3312 301.321 69.1945 301.039 69.1185C300.761 69.0374 300.44 69.0212 300.074 69.07C299.694 69.1206 299.359 69.2244 299.067 69.3814C298.775 69.5339 298.548 69.7277 298.385 69.9629C298.227 70.1975 298.145 70.4584 298.138 70.7454ZM298.219 73.8009L299.263 73.6618L299.205 76.2588L306.252 75.3192L306.232 76.2213L298.141 77.3001L298.219 73.8009Z" fill="#71F179"/>
<path d="M318.342 69.9731L317.271 70.1159L317.342 66.9311L314.916 67.2545L314.936 66.3661L317.362 66.0426L317.432 62.8716L318.503 62.7288L318.342 69.9731ZM308.43 70.3271C309.027 70.0341 309.56 69.6495 310.03 69.1735C310.504 68.6968 310.879 68.1722 311.152 67.5997C311.426 67.0271 311.57 66.4561 311.582 65.8866L311.592 65.4355L308.868 65.7987L308.889 64.8966L315.38 64.031L315.36 64.9332L312.663 65.2927L312.653 65.7301C312.642 66.2541 312.755 66.7455 312.992 67.2045C313.23 67.6634 313.57 68.0541 314.013 68.3766C314.457 68.6946 314.965 68.9152 315.539 69.0386L314.964 69.9738C314.301 69.8169 313.72 69.531 313.22 69.1161C312.725 68.7006 312.353 68.1937 312.105 67.5953C311.832 68.3404 311.42 69.0199 310.871 69.6337C310.326 70.247 309.691 70.7405 308.967 71.1142L308.43 70.3271ZM310.247 73.6826C310.258 73.2088 310.427 72.7819 310.755 72.402C311.088 72.0215 311.559 71.702 312.168 71.4436C312.782 71.1846 313.505 70.9997 314.336 70.8889C315.167 70.778 315.883 70.7711 316.485 70.8681C317.086 70.9651 317.545 71.1605 317.863 71.4543C318.181 71.7481 318.335 72.1319 318.324 72.6057C318.314 73.0796 318.142 73.5067 317.809 73.8873C317.476 74.2678 317.005 74.5872 316.396 74.8456C315.787 75.1086 315.066 75.2978 314.235 75.4131C313.4 75.52 312.681 75.5227 312.08 75.4211C311.479 75.3242 311.019 75.1288 310.701 74.835C310.388 74.5406 310.237 74.1565 310.247 73.6826ZM311.304 73.5417C311.298 73.8287 311.41 74.0637 311.64 74.2465C311.87 74.4248 312.205 74.5413 312.645 74.5962C313.09 74.6505 313.615 74.6373 314.22 74.5565C314.839 74.474 315.376 74.3457 315.83 74.1716C316.284 74.002 316.636 73.7962 316.884 73.554C317.133 73.3074 317.261 73.0382 317.267 72.7467C317.274 72.4551 317.159 72.2182 316.925 72.0359C316.69 71.8537 316.348 71.7358 315.899 71.6821C315.454 71.6278 314.927 71.6413 314.317 71.7227C313.703 71.8046 313.171 71.9323 312.721 72.1058C312.271 72.2794 311.924 72.4892 311.68 72.7352C311.436 72.9813 311.311 73.2501 311.304 73.5417Z" fill="#71F179"/>
</g>
<defs>
<clipPath id="clip0_1096_6700">
<rect width="264" height="302" fill="white" transform="translate(118 54)"/>
</clipPath>
</defs>
</svg>
