
<svg width="135" height="40" viewBox="0 0 135 40" xmlns="http://www.w3.org/2000/svg">
    <g fill="none" fill-rule="evenodd">
        <path d="M0 0h135v40H0z"/>
        <g fill="#292929">
            <path d="M19.576 17.801c-3.49-.877-4.355-1.301-4.355-2.603v-.057c0-.962.894-1.726 2.596-1.726s3.461.736 5.25 1.953l2.308-3.283c-2.049-1.614-4.558-2.52-7.5-2.52-4.125 0-7.067 2.378-7.067 5.973v.056c0 3.934 2.625 5.038 6.692 6.057 3.374.85 4.067 1.415 4.067 2.518v.057c0 1.16-1.096 1.869-2.914 1.869-2.307 0-4.211-.934-6.028-2.407L10 26.773c2.423 2.123 5.51 3.17 8.566 3.17 4.356 0 7.414-2.207 7.414-6.141v-.057c0-3.453-2.308-4.896-6.404-5.944M36.24 26.293c-2.394 0-3.923-1.868-3.923-4.19v-.056c0-2.236 1.557-4.132 3.75-4.132 1.557 0 2.538.651 3.519 1.67l2.682-2.83c-1.442-1.586-3.259-2.548-6.172-2.548-4.73 0-8.105 3.566-8.105 7.897v.057c0 4.33 3.403 7.839 8.047 7.839 3.087 0 4.817-1.16 6.317-2.774l-2.567-2.547c-1.067.99-2.077 1.614-3.548 1.614M53.837 14.207c-2.222 0-3.52 1.161-4.53 2.434V9.35h-4.384v20.31h4.385V21.2c0-2.039 1.067-3.086 2.74-3.086 1.673 0 2.654 1.047 2.654 3.085v8.462h4.384v-9.82c0-3.482-1.933-5.633-5.25-5.633M80.624 14.207c-2.106 0-3.721.85-5.077 2.406-.807-1.528-2.336-2.406-4.355-2.406-2.221 0-3.548 1.161-4.557 2.434V14.49H62.25v15.17h4.385v-8.462c0-2.038 1.01-3.085 2.653-3.085 1.644 0 2.568 1.047 2.568 3.085v8.462h4.384v-8.462c0-2.038 1.01-3.085 2.653-3.085 1.644 0 2.568 1.047 2.568 3.085v8.462h4.384v-9.878c0-3.65-1.96-5.575-5.22-5.575M88.856 29.66h4.384V14.49h-4.384zM88.74 12.82h4.616V9l-4.615.35zM107.941 22.104c0 2.519-1.702 4.189-3.75 4.189-2.047 0-3.779-1.67-3.779-4.19v-.056c0-2.547 1.732-4.19 3.78-4.19 2.047 0 3.75 1.671 3.75 4.19v.057zm-.058-5.633c-1.038-1.216-2.48-2.264-4.817-2.264-3.663 0-7.038 2.774-7.038 7.84v.057c0 5.066 3.433 7.84 7.038 7.84 2.28 0 3.75-1.047 4.817-2.463v2.18h4.386V9.348h-4.386v7.122zM125 18.17v-3.68h-3.634V9.915l-4.386.349v4.226h-1.845v3.68h1.845v7.188c0 3.51 1.818 4.557 4.5 4.557 1.472 0 2.539-.34 3.462-.878v-3.452a4.53 4.53 0 0 1-2.163.537c-.98 0-1.413-.48-1.413-1.471V18.17H125z"/>
        </g>
    </g>
</svg>
