
<svg width="225" height="40" viewBox="0 0 225 40" xmlns="http://www.w3.org/2000/svg">
    <g fill="none" fill-rule="evenodd">
        <path d="M0 0h225v40H0z"/>
        <g fill="#050101">
            <path d="M95.264 27.328h2.748V10.302h-2.748zM107.352 14.29c-1.411 0-2.773.56-3.453 1.484V14.56h-2.696v12.767h2.696v-7.464c0-2.067 1.023-3.26 2.823-3.26 1.78 0 2.828.924 2.828 3.501v7.223h2.697v-7.32c0-3.77-1.701-5.716-4.895-5.716M120.284 21.49c-.42 1.242-.784 2.436-.944 3.14-.182-.704-.576-1.898-1.019-3.14l-2.458-6.93h-2.828l4.917 12.766h2.696l4.843-12.767h-2.85l-2.357 6.932zM128.606 19.767c.233-2.044 1.334-3.213 3.139-3.213 2.224 0 3.115 1.459 3.243 3.213h-6.382zm3.323-5.476c-3.56 0-6.02 2.335-6.02 6.664 0 4.236 2.723 6.644 5.939 6.644 2.096 0 3.535-.607 4.74-1.682l-1.6-1.602c-.915.63-1.831 1.022-2.982 1.022-1.675 0-3.167-1.047-3.453-3.505h9.079c.027-.27.078-.683.078-1.146 0-3.453-1.882-6.395-5.781-6.395zM144.464 19.546c-2.066-.756-2.538-1.213-2.538-1.85 0-.682.576-1.166 1.887-1.166 1.309 0 2.432.366 3.558 1.094l1.178-1.921c-1.231-.83-2.931-1.412-4.66-1.412-2.745 0-4.685 1.189-4.685 3.476 0 2.02 1.074 2.949 4.03 4.018 1.99.704 3.194 1.167 3.194 2.141 0 .898-.81 1.411-2.513 1.411-1.28 0-2.72-.44-4.006-1.266l-1.228 1.894c1.388.956 3.403 1.634 5.26 1.634 2.696 0 5.155-.95 5.155-3.77 0-2.411-1.57-3.192-4.632-4.283M154.462 9.594l-2.641 1.315v3.65h-1.964v2.287h1.964v7.366c0 2.29 1.176 3.387 3.087 3.387 1.073 0 1.99-.245 2.642-.584l.316-2.213c-.498.262-1.282.51-1.989.51-.994 0-1.415-.34-1.415-1.535v-6.93h3.404v-2.288h-3.404V9.594zM174.169 14.29c-2.144 0-3.218.731-4.212 1.874-.736-1.214-1.913-1.874-3.77-1.874-1.413 0-2.593.56-3.271 1.484V14.56h-2.694v12.767h2.694v-7.464c0-2.067.838-3.26 2.644-3.26 1.778 0 2.644.924 2.644 3.501v7.223h2.692v-7.464c0-2.067.84-3.26 2.644-3.26 1.782 0 2.644.924 2.644 3.501v7.223h2.695v-7.32c0-3.77-1.519-5.716-4.71-5.716M183.49 19.767c.234-2.044 1.33-3.213 3.137-3.213 2.226 0 3.11 1.459 3.246 3.213h-6.383zm3.319-5.476c-3.561 0-6.015 2.335-6.015 6.664 0 4.236 2.719 6.644 5.938 6.644 2.097 0 3.532-.607 4.735-1.682l-1.594-1.602c-.916.63-1.83 1.022-2.984 1.022-1.674 0-3.165-1.047-3.45-3.505h9.076c.027-.27.078-.683.078-1.146 0-3.453-1.883-6.395-5.784-6.395zM200.784 14.29c-1.41 0-2.772.56-3.453 1.484V14.56h-2.697v12.767h2.697v-7.464c0-2.067 1.022-3.26 2.824-3.26 1.781 0 2.828.924 2.828 3.501v7.223h2.699v-7.32c0-3.77-1.704-5.716-4.898-5.716M215 16.846V14.56h-3.401V9.594l-2.645 1.315v3.65h-1.96v2.287h1.96v7.366c0 2.29 1.18 3.387 3.086 3.387 1.077 0 1.99-.245 2.648-.584l.312-2.213c-.5.262-1.284.51-1.989.51-.994 0-1.412-.34-1.412-1.535v-6.93H215zM69.421 10.277h-3.924l-9.328 7.699v-7.7h-2.772v17.21h2.772v-9.224l10.151 9.224h3.92L59.564 18.05zM80.396 25.535h-5.458v-6.051h5.313c3.053 0 4.432 1.095 4.432 3.073 0 1.663-.897 2.978-4.287 2.978zm-5.458-13.298h5.313c3.194 0 3.954 1.07 3.954 2.67 0 1.833-1.545 2.618-3.635 2.618h-5.632v-5.288zm8.541 6.268v-.073c1.945-.382 3.407-1.817 3.407-3.894 0-2.92-2.118-4.26-6.178-4.26h-8.533v17.21h8.799c4.718 0 6.616-2.217 6.616-4.79 0-2.05-1.32-3.862-4.11-4.193zM44.529 19.637c-1.042-1.031-2.498-1.48-4.439-1.371-1.618.1-2.906.736-3.884 1.327l-.002-.043c0-.503.057-1.046.112-1.58.058-.534.117-1.082.117-1.6 0-.528-.061-1.03-.244-1.457-.046-.112-.148-.178-.28-.178-.523.012-1.542.37-1.79.583l-.134.293c-.009.57-.134 2.177-.265 2.367.005-.006-.073.2-.073.2-.216 2.288-.223 4.3-.019 6.024.023.176.361.436.618.53.285.102 1.173-.132 1.684-.325-.004.002.197-.03.197-.03.161-.017.258-.154.248-.334-.001-.004.01-.498.01-.498.375-1.49 1.871-3.27 3.646-3.54.998-.154 1.794.098 2.419.776.082.118.263 1.19-.396 2.424-.494.914-1.476 1.683-2.769 2.166-1.224.459-2.57.65-4.235.586-.066-.046-1.558-1.041-1.558-1.041-1.313-.92-2.955-2.06-4.444-2.62-.256-.098-.728-.482-1.007-.714l-.155-.125c-.854-.68-2.485-1.757-3.798-2.623 0 0-.588-.393-.706-.468 0-.048.005-.146.005-.146.036-.041.86-.531.86-.531 1.153-.67 1.687-.997 1.798-1.165-.023.027.152-.09.152-.09l2.855-1.601c2.74-1.495 5.849-3.188 7.477-4.865.005-.001.08-.253.08-.253l.04-.228c.107-.36.114-.632.024-.951-.025-.089-.112-.197-.225-.216-1.27-.125-2.914.632-4.412 2.022-.335.315-.62.466-.917.631l-.23.123c-1.65.93-5.365 3.215-7.308 4.45.128-2.075.515-5.02.99-7.48l-.056-.295c-.003-.01-.196-.368-.196-.368l-.153-.268-.046-.01c-.384-.2-.702-.114-.934-.057l-.392.14-.516.185a.286.286 0 0 0-.217.185c-.927 2.224-1.7 5.88-1.884 8.808-1.855-1.17-3.57-2.01-4.41-2.418l-.026-.013-.1-.023c-.303-.037-.67-.256-1.028-.47l-.704-.455-1.08-.68c.01.005-.284-.07-.284-.07-.464.084-1.351.673-1.614 1.077a.288.288 0 0 0-.05.172c0 .083.024.173.05.254l.046.217.052.134c.516.523 1.82 1.399 3.1 2.079l1.482.78 2.269 1.228c0 .012.389.306.389.306l.266.152s.029.015.048.028l-4.126 2.734-2.172 1.425c-.205.139-1.062.52-1.251.593-.472.19-.828.481-.974.798l-.06.125.06.084.163.12c-.006 0 .225.148.225.148l.24.162c.004.003.224.035.224.035.382.015.95-.203 2.004-.66.97-.426 3.606-2.001 4.732-2.676l.482-.285c.197.017.42-.152.613-.298a6.276 6.276 0 0 1 1.018-.61c.008 0 .178-.093.339-.186-.002.054-.002.132-.002.132.05 3.417.249 5.898.625 7.81l.007.035.037.079c.185.273.397 1.08.582 1.798l.43 1.423c.008.015.124.133.124.133.24.164.988.449 1.486.389l.126-.015.08-.17c.042-.214.057-.424.057-.656 0-.26-.019-.548-.046-.9l-.03-.514c-.158-2.384-.317-5.827-.317-8.119l.001-.184 2.197 1.375c3.041 1.956 7.64 4.91 10.419 5.694.145.044.297.01.402-.09.005-.005.432-.273.432-.273l.076-.033c.158-.074.266-.342.284-.63 2.343-.118 5.61-1.011 7.356-3.187.676-.846.984-1.88.984-2.767 0-.724-.201-1.35-.573-1.69 0-.002-.308-.196-.308-.196"/>
        </g>
    </g>
</svg>
