
<svg width="176" height="40" viewBox="0 0 176 40" xmlns="http://www.w3.org/2000/svg">
    <g fill="none" fill-rule="evenodd">
        <path d="M0 0h176v40H0z"/>
        <g fill="#292929" fill-rule="nonzero">
            <path d="M29.985 25.652c-.11.55-.53.55-.864.55-1.359-5.362-2.698-10.635-4.062-16.054H21.69c-1.198 5.186-2.367 10.315-3.563 15.504-.084.347-.419.52-1.002.52-1.336-5.361-2.672-10.605-4.009-16.024H10c1.864 6.639 3.647 13.155 5.511 19.762 1.085 0 2.254.06 2.839-.377 1.085-.492 1.955-1.449 2.31-3.07.863-3.798 1.67-7.506 2.54-11.304h.223l4.12 14.782c2.976 0 4.006-.928 4.815-3.45l4.168-16.343H33.52c-1.195 5.186-2.336 10.315-3.535 15.504zM39.531 27.475c.002 1.394 1.086 2.523 2.425 2.525h10.442v-2.67H39.524l.007.145zM41.985 10c-1.351 0-2.449 1.138-2.454 2.545v.148h12.874V10h-10.42zM39.821 16.602l-.142-.012h-.141v6.822h.283c.006-1.147.9-2.073 2.001-2.075h10.583v-2.672H41.858c-1.107.008-2.015-.911-2.037-2.063zM77.28 15.95c-1.283 3.661-2.423 7.236-3.707 10.898-.682 1.958-1.63 3.035-3.706 3.035h-1.366c-1.63-4.683-3.27-9.25-4.905-13.933h2.836c1.227 3.633 2.454 7.18 3.68 10.784.518 0 .762-.114.953-.54 1.173-3.434 2.263-6.81 3.38-10.244h2.835zM88.319 27.33c.6 0 .736.254.38.738l-1.17 1.645h-2.644c-4.933 0-7.305-3.037-7.305-7.126 0-3.746 2.236-6.895 6.296-6.895 3.625 0 5.997 2.525 5.997 6.213-.083 1.392-.627 2.27-1.936 2.27h-7.631c.244 1.733 1.58 3.151 4.388 3.151l3.625.003zm-1.772-5.454c.518 0 .681-.312.681-.766 0-1.675-1.466-2.98-3.352-2.98-2.317.014-3.542 1.71-3.68 3.746h6.351zM99.439 16.008c3.38 0 4.66 2.099 4.66 5.39v8.483h-2.615v-8.454c0-1.816-.652-3.008-2.282-3.008H94.67v11.464h-2.643V16.008h7.413zM112.441 29.742c-2.699 0-3.842-1.618-3.842-4.484v-6.924h-2.59v-2.326h2.59V13.14c.762-.566 1.934-1.588 2.397-1.588a.318.318 0 0 1 .246.085v4.37h3.407v2.327h-3.407v6.583c0 1.59.3 2.375 1.743 2.375h1.793v2.442l-2.337.008zM121.951 29.883c-3.705 0-5.014-1.815-5.014-5.136V15.98h2.643v8.57c0 1.958.465 2.95 2.617 2.95h4.089V15.98h2.643v13.904h-6.978zM131.929 21.483c0-3.773 1.69-5.475 5.316-5.475h3.98v2.41h-3.764c-2.152 0-2.861 1.107-2.861 3.065v8.4h-2.071a1.411 1.411 0 0 1-.6-.056v-8.344zM153.162 27.33c.6 0 .735.254.382.738l-1.172 1.645h-2.645c-4.933 0-7.304-3.037-7.304-7.126 0-3.746 2.235-6.895 6.295-6.895 3.626 0 5.997 2.525 5.997 6.213-.081 1.392-.627 2.27-1.934 2.27h-7.633c.246 1.733 1.58 3.151 4.388 3.151l3.626.003zm-1.773-5.454c.519 0 .683-.312.683-.766 0-1.675-1.467-2.98-3.354-2.98-2.315.014-3.542 1.71-3.677 3.746h6.348zM156.596 27.528h4.035c1.334 0 2.607-.426 2.607-1.76 0-1.106-1.009-1.503-2.607-1.844-1.909-.397-4.28-1.333-4.28-4.058 0-2.837 2.153-3.916 5.56-3.916h1.2c1.26 0 2.281 1.064 2.281 2.375h-3.371c-1.718 0-3.054.426-3.054 1.59 0 1.249 1.527 1.697 3.189 2.014 2.154.455 3.844 1.675 3.844 3.746 0 3.036-2.59 4.257-5.288 4.257h-1.792c-1.28.004-2.32-1.072-2.324-2.404z"/>
        </g>
    </g>
</svg>
