<svg width="36" height="36" viewBox="0 0 36 36" fill="none" xmlns="http://www.w3.org/2000/svg">
<path fill-rule="evenodd" clip-rule="evenodd" d="M11.4688 9.96833C6.26641 15.0935 3 18.7002 3 23.7514C3 29.8005 8.61221 33.4988 18 33.4988C27.3878 33.4988 33 29.8005 33 23.7514C33 18.7133 29.7505 15.1122 24.5717 10.0082L27.1391 7.03596C27.6746 6.49812 27.8366 5.69356 27.5508 4.9913C27.265 4.28904 26.5865 3.82459 25.8265 3.81097H25.7389C24.9224 3.81097 24.5015 4.009 24.1044 4.19581C23.6894 4.39105 23.3005 4.57404 22.5133 4.50593C21.3762 4.37972 20.9806 3.98957 20.6273 3.64109C20.6197 3.63364 20.6122 3.62621 20.6047 3.61879C20.5715 3.58613 20.5365 3.54997 20.499 3.51124C20.1303 3.13019 19.5205 2.5 18.0386 2.5C16.4942 2.5 15.9232 3.12478 15.5671 3.51451C15.5331 3.55166 15.5011 3.58666 15.4704 3.61879C15.1176 3.98805 14.7254 4.3792 13.564 4.50593C12.7797 4.57743 12.3907 4.39411 11.9742 4.19786C11.5763 4.01032 11.1533 3.81097 10.3362 3.81097H10.2486C9.48822 3.82374 8.80894 4.28787 8.52256 4.99032C8.23619 5.69277 8.39803 6.49784 8.93381 7.03596L11.4688 9.96833Z" fill="#FFAD3D"/>
<path d="M19.9161 19.5866C19.0697 18.7403 18.4385 17.6312 18.1614 17.095C18.1303 17.0365 18.0694 17 18.0032 17C17.9369 17 17.8761 17.0365 17.8449 17.095C17.5571 17.6374 16.9062 18.7698 16.0911 19.5866C15.2761 20.4035 14.1365 21.0553 13.595 21.3413C13.5365 21.3725 13.5 21.4333 13.5 21.4996C13.5 21.5658 13.5365 21.6266 13.595 21.6578C14.133 21.9429 15.2725 22.593 16.0911 23.4116C16.9097 24.2302 17.5571 25.3617 17.844 25.905C17.8752 25.9635 17.936 26 18.0023 26C18.0685 26 18.1294 25.9635 18.1605 25.905C18.4385 25.3671 19.0697 24.2597 19.9161 23.4134C20.7625 22.567 21.8671 21.9375 22.4042 21.6605C22.4631 21.6295 22.5 21.5684 22.5 21.5018C22.5 21.4352 22.4631 21.3741 22.4042 21.3431C21.8671 21.0616 20.7616 20.4312 19.9161 19.5866Z" fill="white"/>
</svg>
