<svg width="36" height="36" viewBox="0 0 36 36" fill="none" xmlns="http://www.w3.org/2000/svg">
<path d="M30.528 11.8L26.896 8.168C27.008 7.496 27.184 6.872 27.408 6.328C27.5616 5.96367 27.6227 5.56699 27.5858 5.17331C27.549 4.77964 27.4153 4.40121 27.1967 4.07173C26.9781 3.74225 26.6814 3.47198 26.333 3.28498C25.9846 3.09799 25.5954 3.00008 25.2 3C22.576 3 20.256 4.264 18.8 6.2H10.8C5.936 6.2 2 10.136 2 15C2 19.864 6 33.4 6 33.4H14.8V30.2H18V33.4H26.8L29.488 24.456L34 22.952V11.8H30.528Z" fill="#FF9AB9"/>
<rect x="10.5322" y="10.4678" width="9.6" height="2.13333" rx="1.06667" fill="white"/>
<circle cx="24.935" cy="15.2694" r="1.6" fill="white"/>
</svg>
