<svg width="22" height="22" viewBox="0 0 22 22" xmlns="http://www.w3.org/2000/svg">
    <g fill="none" fill-rule="evenodd">
        <path d="M0 0h22v22H0z"/>
        <path d="m16.638 20.167 2.918-.283-2.238-2.716c1.435-1.66 2.153-3.763 2.153-6.31 0-2.47-.803-4.592-2.408-6.365-1.606-1.773-3.636-2.66-6.091-2.66-2.456 0-4.49.887-6.105 2.66C3.252 6.266 2.444 8.402 2.444 10.9c0 2.5.803 4.626 2.408 6.38 1.606 1.754 3.646 2.631 6.12 2.631 1.662 0 3.135-.415 4.42-1.245l1.246 1.5zm-5.666-3.028c-1.606 0-2.923-.603-3.952-1.81-1.03-1.207-1.544-2.646-1.544-4.315 0-1.67.52-3.16 1.558-4.47 1.039-1.31 2.356-1.966 3.952-1.966s2.908.608 3.938 1.825c1.029 1.216 1.544 2.664 1.544 4.342 0 1.604-.454 2.943-1.36 4.018l-1.927-2.179-3.003.283 3.173 3.622c-.698.433-1.492.65-2.38.65z" fill="#F05014" fill-rule="nonzero"/>
    </g>
</svg>
