<svg width="100" height="100" viewBox="0 0 100 100" fill="none" xmlns="http://www.w3.org/2000/svg">
<path fill-rule="evenodd" clip-rule="evenodd" d="M46.0085 69.9845L43.0474 68.1276L43.6507 66.9707L28.4328 47.0897C27.9884 46.5092 28.0285 45.6642 28.5316 45.0101L40.6392 29.2662C41.0539 28.727 41.7112 28.4135 42.356 28.4473L63.171 29.5381L63.9619 28.0213L67.0595 29.8777L67.0445 29.9063C67.3502 30.0772 67.5866 30.3468 67.711 30.6849L73.8523 47.3852C74.1075 48.0791 73.839 48.9121 73.1916 49.4355L48.1576 69.6725C47.506 70.1993 46.6533 70.2728 46.0443 69.9164L46.0085 69.9845Z" fill="#218364"/>
<path fill-rule="evenodd" clip-rule="evenodd" d="M46.0085 69.9845L43.0474 68.1276L43.6507 66.9707L28.4328 47.0897C27.9884 46.5092 28.0285 45.6642 28.5316 45.0101L40.6392 29.2662C41.0539 28.727 41.7112 28.4135 42.356 28.4473L63.171 29.5381L63.9619 28.0213L67.0595 29.8777L67.0445 29.9063C67.3502 30.0772 67.5866 30.3468 67.711 30.6849L73.8523 47.3852C74.1075 48.0791 73.839 48.9121 73.1916 49.4355L48.1576 69.6725C47.506 70.1993 46.6533 70.2728 46.0443 69.9164L46.0085 69.9845Z" fill="url(#paint0_linear_1019_8215)" fill-opacity="0.3"/>
<path d="M42.5748 67.6851C43.1415 68.4254 44.29 68.4856 45.1155 67.8182L70.1496 47.5812C70.7969 47.0578 71.0654 46.2248 70.8102 45.5309L64.6689 28.8306C64.4586 28.2588 63.928 27.8829 63.2832 27.8491L39.314 26.593C38.6692 26.5592 38.0118 26.8727 37.5972 27.4119L25.4895 43.1558C24.9864 43.8099 24.9463 44.6549 25.3907 45.2355L42.5748 67.6851Z" fill="#37C197"/>
<path d="M42.5748 67.6851C43.1415 68.4254 44.29 68.4856 45.1155 67.8182L70.1496 47.5812C70.7969 47.0578 71.0654 46.2248 70.8102 45.5309L64.6689 28.8306C64.4586 28.2588 63.928 27.8829 63.2832 27.8491L39.314 26.593C38.6692 26.5592 38.0118 26.8727 37.5972 27.4119L25.4895 43.1558C24.9864 43.8099 24.9463 44.6549 25.3907 45.2355L42.5748 67.6851Z" fill="url(#paint1_linear_1019_8215)" fill-opacity="0.6"/>
<path fill-rule="evenodd" clip-rule="evenodd" d="M49.4756 47.2603C49.3589 47.2628 48.7572 47.2661 47.4293 47.1926C46.3731 47.1341 45.6288 47.0602 45.368 47.0328C41.3185 46.623 38.3992 45.7273 38.5518 44.8569C38.7043 43.9864 41.8782 43.4291 45.9926 43.4685L45.4949 46.3087C45.7584 46.3432 46.5146 46.4317 47.5708 46.4902C48.8382 46.5604 49.4823 46.5415 49.5985 46.537L50.0961 43.6978C54.1366 44.109 57.0491 45.0044 56.8969 45.8729C56.7447 46.7413 53.5784 47.3 49.472 47.2591L49.4756 47.2603ZM50.6065 40.8156L56.3324 41.1342L57.0168 37.2128L41.4271 36.3454L40.7428 40.2668L46.4678 40.5853L46.0191 43.1558C41.3275 43.1166 37.6628 43.8692 37.4647 45.0044C37.2666 46.1395 40.6008 47.2805 45.2156 47.7601L43.7775 56.0005L47.9153 56.2307L49.3539 47.9873C54.0349 48.026 57.6936 47.274 57.8916 46.1399C58.0895 45.0057 54.764 43.8652 50.1569 43.3861L50.6065 40.8156Z" fill="white"/>
<defs>
<linearGradient id="paint0_linear_1019_8215" x1="79.6969" y1="38.8277" x2="51.3471" y2="73.8252" gradientUnits="userSpaceOnUse">
<stop stop-opacity="0"/>
<stop offset="1"/>
</linearGradient>
<linearGradient id="paint1_linear_1019_8215" x1="51.2078" y1="54.2691" x2="35.8245" y2="15.1288" gradientUnits="userSpaceOnUse">
<stop stop-color="#26A17B"/>
<stop offset="0.942241" stop-color="white" stop-opacity="0.49"/>
</linearGradient>
</defs>
</svg>
