<svg width="50" height="50" viewBox="0 0 50 50" fill="none" xmlns="http://www.w3.org/2000/svg">
<circle cx="25" cy="25" r="25" fill="#3888DE"/>
<path fill-rule="evenodd" clip-rule="evenodd" d="M20.1387 40.9291C20.1387 41.4763 19.7295 41.7872 19.2242 41.622C12.5081 39.378 7.63867 32.7821 7.63867 24.9995C7.63867 17.2171 12.5081 10.621 19.2242 8.37697C19.7295 8.21279 20.1387 8.52264 20.1387 9.06989V10.4208C20.1387 10.7852 19.8691 11.214 19.5377 11.3327C14.224 13.3763 10.4175 18.7227 10.4175 24.9902C10.4175 31.2577 14.224 36.6052 19.5377 38.6478C19.8691 38.7757 20.1387 39.195 20.1387 39.5607V40.9291Z" fill="white"/>
<path fill-rule="evenodd" clip-rule="evenodd" d="M26.8946 35.414C26.8946 35.7975 26.5787 36.1109 26.1927 36.1109H24.7968C24.4107 36.1109 24.0949 35.7975 24.0949 35.414V33.22C21.0402 32.811 19.5485 31.1127 19.1446 28.8054C19.0742 28.4131 19.3901 28.0563 19.794 28.0563H21.3915C21.7249 28.0563 22.006 28.2917 22.0762 28.622C22.3748 29.9979 23.1734 31.0516 25.6219 31.0516C27.43 31.0516 28.7119 30.0501 28.7119 28.5531C28.7119 27.0548 27.9568 26.4891 25.306 26.0534C21.3915 25.531 19.5396 24.3552 19.5396 21.3077C19.5396 18.9568 21.3304 17.1285 24.1038 16.7364V14.5856C24.1038 14.2023 24.4199 13.8887 24.8057 13.8887H26.2016C26.5876 13.8887 26.9035 14.2023 26.9035 14.5856V16.7974C29.1593 17.1986 30.5899 18.4691 31.0554 20.5762C31.1429 20.9774 30.827 21.3511 30.4147 21.3511H28.9398C28.6239 21.3511 28.3606 21.1419 28.2643 20.8374C27.8693 19.497 26.9035 18.9225 25.2269 18.9225C23.3751 18.9225 22.4182 19.8104 22.4182 21.0554C22.4182 22.3702 22.9628 23.0315 25.8068 23.4416C29.6507 23.9639 31.6348 25.0521 31.6348 28.3008C31.6348 30.7647 29.7913 32.7588 26.9035 33.22V35.414H26.8946Z" fill="white"/>
<path fill-rule="evenodd" clip-rule="evenodd" d="M31.1606 41.622C30.6558 41.7873 30.2461 41.4762 30.2461 40.9287V39.5783C30.2461 39.1765 30.4813 38.8025 30.8471 38.665C36.1608 36.6205 39.9672 31.2717 39.9672 25.0015C39.9672 18.7312 36.1608 13.3825 30.8471 11.3379C30.5162 11.2099 30.2461 10.7905 30.2461 10.4247V9.07418C30.2461 8.52669 30.6558 8.20745 31.1606 8.3799C37.8767 10.6262 42.7461 17.225 42.7461 25.0107C42.7378 32.778 37.8767 39.3677 31.1606 41.622Z" fill="white"/>
</svg>
